<?xml version="1.0" encoding="utf-8" standalone="no"?>
<!DOCTYPE svg PUBLIC "-//W3C//DTD SVG 1.1//EN"
  "http://www.w3.org/Graphics/SVG/1.1/DTD/svg11.dtd">
<svg xmlns:xlink="http://www.w3.org/1999/xlink" width="460.8pt" height="345.6pt" viewBox="0 0 460.8 345.6" xmlns="http://www.w3.org/2000/svg" version="1.1">
 <metadata>
  <rdf:RDF xmlns:dc="http://purl.org/dc/elements/1.1/" xmlns:cc="http://creativecommons.org/ns#" xmlns:rdf="http://www.w3.org/1999/02/22-rdf-syntax-ns#">
   <cc:Work>
    <dc:type rdf:resource="http://purl.org/dc/dcmitype/StillImage"/>
    <dc:date>2024-01-12T14:12:27.588667</dc:date>
    <dc:format>image/svg+xml</dc:format>
    <dc:creator>
     <cc:Agent>
      <dc:title>Matplotlib v3.8.2, https://matplotlib.org/</dc:title>
     </cc:Agent>
    </dc:creator>
   </cc:Work>
  </rdf:RDF>
 </metadata>
 <defs>
  <style type="text/css">*{stroke-linejoin: round; stroke-linecap: butt}</style>
 </defs>
 <g id="figure_1">
  <g id="patch_1">
   <path d="M 0 345.6 
L 460.8 345.6 
L 460.8 0 
L 0 0 
z
" style="fill: #ffffff"/>
  </g>
  <g id="axes_1">
   <g id="patch_2">
    <path d="M 57.6 307.584 
L 414.72 307.584 
L 414.72 41.472 
L 57.6 41.472 
z
" style="fill: #ffffff"/>
   </g>
   <g id="matplotlib.axis_1">
    <g id="xtick_1">
     <g id="line2d_1">
      <defs>
       <path id="m46a4609d8c" d="M 0 0 
L 0 3.5 
" style="stroke: #000000; stroke-width: 0.8"/>
      </defs>
      <g>
       <use xlink:href="#m46a4609d8c" x="73.832727" y="307.584" style="stroke: #000000; stroke-width: 0.8"/>
      </g>
     </g>
     <g id="text_1">
      <!-- 0 -->
      <g transform="translate(70.651477 322.182437) scale(0.1 -0.1)">
       <defs>
        <path id="DejaVuSans-30" d="M 2034 4250 
Q 1547 4250 1301 3770 
Q 1056 3291 1056 2328 
Q 1056 1369 1301 889 
Q 1547 409 2034 409 
Q 2525 409 2770 889 
Q 3016 1369 3016 2328 
Q 3016 3291 2770 3770 
Q 2525 4250 2034 4250 
z
M 2034 4750 
Q 2819 4750 3233 4129 
Q 3647 3509 3647 2328 
Q 3647 1150 3233 529 
Q 2819 -91 2034 -91 
Q 1250 -91 836 529 
Q 422 1150 422 2328 
Q 422 3509 836 4129 
Q 1250 4750 2034 4750 
z
" transform="scale(0.015625)"/>
       </defs>
       <use xlink:href="#DejaVuSans-30"/>
      </g>
     </g>
    </g>
    <g id="xtick_2">
     <g id="line2d_2">
      <g>
       <use xlink:href="#m46a4609d8c" x="138.763636" y="307.584" style="stroke: #000000; stroke-width: 0.8"/>
      </g>
     </g>
     <g id="text_2">
      <!-- 20 -->
      <g transform="translate(132.401136 322.182437) scale(0.1 -0.1)">
       <defs>
        <path id="DejaVuSans-32" d="M 1228 531 
L 3431 531 
L 3431 0 
L 469 0 
L 469 531 
Q 828 903 1448 1529 
Q 2069 2156 2228 2338 
Q 2531 2678 2651 2914 
Q 2772 3150 2772 3378 
Q 2772 3750 2511 3984 
Q 2250 4219 1831 4219 
Q 1534 4219 1204 4116 
Q 875 4013 500 3803 
L 500 4441 
Q 881 4594 1212 4672 
Q 1544 4750 1819 4750 
Q 2544 4750 2975 4387 
Q 3406 4025 3406 3419 
Q 3406 3131 3298 2873 
Q 3191 2616 2906 2266 
Q 2828 2175 2409 1742 
Q 1991 1309 1228 531 
z
" transform="scale(0.015625)"/>
       </defs>
       <use xlink:href="#DejaVuSans-32"/>
       <use xlink:href="#DejaVuSans-30" x="63.623047"/>
      </g>
     </g>
    </g>
    <g id="xtick_3">
     <g id="line2d_3">
      <g>
       <use xlink:href="#m46a4609d8c" x="203.694545" y="307.584" style="stroke: #000000; stroke-width: 0.8"/>
      </g>
     </g>
     <g id="text_3">
      <!-- 40 -->
      <g transform="translate(197.332045 322.182437) scale(0.1 -0.1)">
       <defs>
        <path id="DejaVuSans-34" d="M 2419 4116 
L 825 1625 
L 2419 1625 
L 2419 4116 
z
M 2253 4666 
L 3047 4666 
L 3047 1625 
L 3713 1625 
L 3713 1100 
L 3047 1100 
L 3047 0 
L 2419 0 
L 2419 1100 
L 313 1100 
L 313 1709 
L 2253 4666 
z
" transform="scale(0.015625)"/>
       </defs>
       <use xlink:href="#DejaVuSans-34"/>
       <use xlink:href="#DejaVuSans-30" x="63.623047"/>
      </g>
     </g>
    </g>
    <g id="xtick_4">
     <g id="line2d_4">
      <g>
       <use xlink:href="#m46a4609d8c" x="268.625455" y="307.584" style="stroke: #000000; stroke-width: 0.8"/>
      </g>
     </g>
     <g id="text_4">
      <!-- 60 -->
      <g transform="translate(262.262955 322.182437) scale(0.1 -0.1)">
       <defs>
        <path id="DejaVuSans-36" d="M 2113 2584 
Q 1688 2584 1439 2293 
Q 1191 2003 1191 1497 
Q 1191 994 1439 701 
Q 1688 409 2113 409 
Q 2538 409 2786 701 
Q 3034 994 3034 1497 
Q 3034 2003 2786 2293 
Q 2538 2584 2113 2584 
z
M 3366 4563 
L 3366 3988 
Q 3128 4100 2886 4159 
Q 2644 4219 2406 4219 
Q 1781 4219 1451 3797 
Q 1122 3375 1075 2522 
Q 1259 2794 1537 2939 
Q 1816 3084 2150 3084 
Q 2853 3084 3261 2657 
Q 3669 2231 3669 1497 
Q 3669 778 3244 343 
Q 2819 -91 2113 -91 
Q 1303 -91 875 529 
Q 447 1150 447 2328 
Q 447 3434 972 4092 
Q 1497 4750 2381 4750 
Q 2619 4750 2861 4703 
Q 3103 4656 3366 4563 
z
" transform="scale(0.015625)"/>
       </defs>
       <use xlink:href="#DejaVuSans-36"/>
       <use xlink:href="#DejaVuSans-30" x="63.623047"/>
      </g>
     </g>
    </g>
    <g id="xtick_5">
     <g id="line2d_5">
      <g>
       <use xlink:href="#m46a4609d8c" x="333.556364" y="307.584" style="stroke: #000000; stroke-width: 0.8"/>
      </g>
     </g>
     <g id="text_5">
      <!-- 80 -->
      <g transform="translate(327.193864 322.182437) scale(0.1 -0.1)">
       <defs>
        <path id="DejaVuSans-38" d="M 2034 2216 
Q 1584 2216 1326 1975 
Q 1069 1734 1069 1313 
Q 1069 891 1326 650 
Q 1584 409 2034 409 
Q 2484 409 2743 651 
Q 3003 894 3003 1313 
Q 3003 1734 2745 1975 
Q 2488 2216 2034 2216 
z
M 1403 2484 
Q 997 2584 770 2862 
Q 544 3141 544 3541 
Q 544 4100 942 4425 
Q 1341 4750 2034 4750 
Q 2731 4750 3128 4425 
Q 3525 4100 3525 3541 
Q 3525 3141 3298 2862 
Q 3072 2584 2669 2484 
Q 3125 2378 3379 2068 
Q 3634 1759 3634 1313 
Q 3634 634 3220 271 
Q 2806 -91 2034 -91 
Q 1263 -91 848 271 
Q 434 634 434 1313 
Q 434 1759 690 2068 
Q 947 2378 1403 2484 
z
M 1172 3481 
Q 1172 3119 1398 2916 
Q 1625 2713 2034 2713 
Q 2441 2713 2670 2916 
Q 2900 3119 2900 3481 
Q 2900 3844 2670 4047 
Q 2441 4250 2034 4250 
Q 1625 4250 1398 4047 
Q 1172 3844 1172 3481 
z
" transform="scale(0.015625)"/>
       </defs>
       <use xlink:href="#DejaVuSans-38"/>
       <use xlink:href="#DejaVuSans-30" x="63.623047"/>
      </g>
     </g>
    </g>
    <g id="xtick_6">
     <g id="line2d_6">
      <g>
       <use xlink:href="#m46a4609d8c" x="398.487273" y="307.584" style="stroke: #000000; stroke-width: 0.8"/>
      </g>
     </g>
     <g id="text_6">
      <!-- 100 -->
      <g transform="translate(388.943523 322.182437) scale(0.1 -0.1)">
       <defs>
        <path id="DejaVuSans-31" d="M 794 531 
L 1825 531 
L 1825 4091 
L 703 3866 
L 703 4441 
L 1819 4666 
L 2450 4666 
L 2450 531 
L 3481 531 
L 3481 0 
L 794 0 
L 794 531 
z
" transform="scale(0.015625)"/>
       </defs>
       <use xlink:href="#DejaVuSans-31"/>
       <use xlink:href="#DejaVuSans-30" x="63.623047"/>
       <use xlink:href="#DejaVuSans-30" x="127.246094"/>
      </g>
     </g>
    </g>
   </g>
   <g id="matplotlib.axis_2">
    <g id="ytick_1">
     <g id="line2d_7">
      <defs>
       <path id="m17f7a3386c" d="M 0 0 
L -3.5 0 
" style="stroke: #000000; stroke-width: 0.8"/>
      </defs>
      <g>
       <use xlink:href="#m17f7a3386c" x="57.6" y="260.510259" style="stroke: #000000; stroke-width: 0.8"/>
      </g>
     </g>
     <g id="text_7">
      <!-- 4400 -->
      <g transform="translate(25.15 264.309478) scale(0.1 -0.1)">
       <use xlink:href="#DejaVuSans-34"/>
       <use xlink:href="#DejaVuSans-34" x="63.623047"/>
       <use xlink:href="#DejaVuSans-30" x="127.246094"/>
       <use xlink:href="#DejaVuSans-30" x="190.869141"/>
      </g>
     </g>
    </g>
    <g id="ytick_2">
     <g id="line2d_8">
      <g>
       <use xlink:href="#m17f7a3386c" x="57.6" y="204.27595" style="stroke: #000000; stroke-width: 0.8"/>
      </g>
     </g>
     <g id="text_8">
      <!-- 4600 -->
      <g transform="translate(25.15 208.075169) scale(0.1 -0.1)">
       <use xlink:href="#DejaVuSans-34"/>
       <use xlink:href="#DejaVuSans-36" x="63.623047"/>
       <use xlink:href="#DejaVuSans-30" x="127.246094"/>
       <use xlink:href="#DejaVuSans-30" x="190.869141"/>
      </g>
     </g>
    </g>
    <g id="ytick_3">
     <g id="line2d_9">
      <g>
       <use xlink:href="#m17f7a3386c" x="57.6" y="148.04164" style="stroke: #000000; stroke-width: 0.8"/>
      </g>
     </g>
     <g id="text_9">
      <!-- 4800 -->
      <g transform="translate(25.15 151.840859) scale(0.1 -0.1)">
       <use xlink:href="#DejaVuSans-34"/>
       <use xlink:href="#DejaVuSans-38" x="63.623047"/>
       <use xlink:href="#DejaVuSans-30" x="127.246094"/>
       <use xlink:href="#DejaVuSans-30" x="190.869141"/>
      </g>
     </g>
    </g>
    <g id="ytick_4">
     <g id="line2d_10">
      <g>
       <use xlink:href="#m17f7a3386c" x="57.6" y="91.807331" style="stroke: #000000; stroke-width: 0.8"/>
      </g>
     </g>
     <g id="text_10">
      <!-- 5000 -->
      <g transform="translate(25.15 95.606549) scale(0.1 -0.1)">
       <defs>
        <path id="DejaVuSans-35" d="M 691 4666 
L 3169 4666 
L 3169 4134 
L 1269 4134 
L 1269 2991 
Q 1406 3038 1543 3061 
Q 1681 3084 1819 3084 
Q 2600 3084 3056 2656 
Q 3513 2228 3513 1497 
Q 3513 744 3044 326 
Q 2575 -91 1722 -91 
Q 1428 -91 1123 -41 
Q 819 9 494 109 
L 494 744 
Q 775 591 1075 516 
Q 1375 441 1709 441 
Q 2250 441 2565 725 
Q 2881 1009 2881 1497 
Q 2881 1984 2565 2268 
Q 2250 2553 1709 2553 
Q 1456 2553 1204 2497 
Q 953 2441 691 2322 
L 691 4666 
z
" transform="scale(0.015625)"/>
       </defs>
       <use xlink:href="#DejaVuSans-35"/>
       <use xlink:href="#DejaVuSans-30" x="63.623047"/>
       <use xlink:href="#DejaVuSans-30" x="127.246094"/>
       <use xlink:href="#DejaVuSans-30" x="190.869141"/>
      </g>
     </g>
    </g>
   </g>
   <g id="line2d_11">
    <path d="M 73.832727 96.531013 
L 77.079273 100.242477 
L 80.325818 110.139715 
L 83.572364 112.895197 
L 86.818909 113.120134 
L 90.065455 131.452519 
L 93.312 148.154109 
L 96.558545 156.308084 
L 99.805091 159.682142 
L 103.051636 167.61118 
L 106.298182 187.293188 
L 109.544727 188.811515 
L 112.791273 201.857874 
L 116.037818 201.857874 
L 119.284364 211.530176 
L 122.530909 217.491013 
L 125.777455 224.857707 
L 129.024 224.857707 
L 132.270545 225.588753 
L 135.517091 226.319799 
L 138.763636 229.637623 
L 142.010182 229.637623 
L 145.256727 231.380887 
L 148.503273 231.662059 
L 151.749818 237.622895 
L 154.996364 237.622895 
L 158.242909 237.622895 
L 161.489455 237.622895 
L 164.736 237.622895 
L 167.982545 247.182728 
L 171.229091 247.182728 
L 174.475636 248.026243 
L 177.722182 251.287833 
L 180.968727 251.287833 
L 184.215273 251.287833 
L 187.461818 255.786577 
L 190.708364 255.786577 
L 193.954909 255.786577 
L 197.201455 255.786577 
L 200.448 255.786577 
L 203.694545 258.373356 
L 206.941091 258.373356 
L 210.187636 258.373356 
L 213.434182 258.373356 
L 216.680727 258.373356 
L 219.927273 258.373356 
L 223.173818 258.373356 
L 226.420364 258.373356 
L 229.666909 258.373356 
L 232.913455 258.373356 
L 236.16 258.373356 
L 239.406545 258.373356 
L 242.653091 258.373356 
L 245.899636 258.373356 
L 249.146182 258.373356 
L 252.392727 258.373356 
L 255.639273 260.172854 
L 258.885818 260.172854 
L 262.132364 261.241305 
L 265.378909 263.546912 
L 268.625455 263.546912 
L 271.872 263.546912 
L 275.118545 263.546912 
L 278.365091 263.546912 
L 281.611636 263.546912 
L 284.858182 264.55913 
L 288.104727 264.55913 
L 291.351273 264.784067 
L 294.597818 264.784067 
L 297.844364 264.784067 
L 301.090909 264.784067 
L 304.337455 264.784067 
L 307.584 264.784067 
L 310.830545 264.784067 
L 314.077091 264.784067 
L 317.323636 265.571347 
L 320.570182 265.571347 
L 323.816727 265.571347 
L 327.063273 265.571347 
L 330.309818 265.571347 
L 333.556364 265.571347 
L 336.802909 265.571347 
L 340.049455 265.571347 
L 343.296 265.571347 
L 346.542545 265.571347 
L 349.789091 265.571347 
L 353.035636 265.571347 
L 356.282182 265.571347 
L 359.528727 268.439297 
L 362.775273 269.226577 
L 366.021818 269.226577 
L 369.268364 269.226577 
L 372.514909 270.351264 
L 375.761455 270.351264 
L 379.008 270.351264 
L 382.254545 271.644653 
L 385.501091 276.930678 
L 388.747636 276.930678 
L 391.994182 276.930678 
L 395.240727 276.930678 
L 398.487273 277.043146 
" clip-path="url(#p13de1cf77b)" style="fill: none; stroke: #1f77b4; stroke-width: 1.5; stroke-linecap: square"/>
   </g>
   <g id="line2d_12">
    <path d="M 73.832727 57.560636 
L 77.079273 124.142059 
L 80.325818 138.538042 
L 83.572364 138.538042 
L 86.818909 152.765322 
L 90.065455 154.845992 
L 93.312 175.371515 
L 96.558545 175.371515 
L 99.805091 175.371515 
L 103.051636 175.371515 
L 106.298182 183.469255 
L 109.544727 183.469255 
L 112.791273 183.469255 
L 116.037818 184.031598 
L 119.284364 185.662393 
L 122.530909 194.153774 
L 125.777455 198.93369 
L 129.024 198.93369 
L 132.270545 198.93369 
L 135.517091 198.93369 
L 138.763636 198.93369 
L 142.010182 201.01436 
L 145.256727 218.222059 
L 148.503273 218.222059 
L 151.749818 218.222059 
L 154.996364 218.222059 
L 158.242909 218.222059 
L 161.489455 237.454192 
L 164.736 237.454192 
L 167.982545 237.454192 
L 171.229091 237.454192 
L 174.475636 237.454192 
L 177.722182 237.454192 
L 180.968727 237.454192 
L 184.215273 237.454192 
L 187.461818 237.454192 
L 190.708364 237.454192 
L 193.954909 237.454192 
L 197.201455 237.454192 
L 200.448 237.454192 
L 203.694545 237.454192 
L 206.941091 237.454192 
L 210.187636 237.454192 
L 213.434182 242.177874 
L 216.680727 247.295197 
L 219.927273 252.30005 
L 223.173818 252.30005 
L 226.420364 252.30005 
L 229.666909 252.30005 
L 232.913455 252.30005 
L 236.16 257.192435 
L 239.406545 257.192435 
L 242.653091 257.192435 
L 245.899636 257.192435 
L 249.146182 257.192435 
L 252.392727 257.192435 
L 255.639273 257.192435 
L 258.885818 257.192435 
L 262.132364 257.192435 
L 265.378909 257.192435 
L 268.625455 257.192435 
L 271.872 257.192435 
L 275.118545 259.835448 
L 278.365091 259.835448 
L 281.611636 259.835448 
L 284.858182 259.835448 
L 288.104727 259.835448 
L 291.351273 259.835448 
L 294.597818 259.835448 
L 297.844364 259.835448 
L 301.090909 266.021222 
L 304.337455 266.021222 
L 307.584 266.021222 
L 310.830545 266.13369 
L 314.077091 266.13369 
L 317.323636 266.13369 
L 320.570182 266.13369 
L 323.816727 266.13369 
L 327.063273 266.13369 
L 330.309818 266.13369 
L 333.556364 266.13369 
L 336.802909 266.13369 
L 340.049455 266.13369 
L 343.296 266.13369 
L 346.542545 266.13369 
L 349.789091 266.13369 
L 353.035636 266.13369 
L 356.282182 266.13369 
L 359.528727 266.13369 
L 362.775273 266.13369 
L 366.021818 266.13369 
L 369.268364 266.13369 
L 372.514909 266.13369 
L 375.761455 266.13369 
L 379.008 266.13369 
L 382.254545 266.13369 
L 385.501091 266.13369 
L 388.747636 266.13369 
L 391.994182 266.13369 
L 395.240727 266.13369 
L 398.487273 266.13369 
" clip-path="url(#p13de1cf77b)" style="fill: none; stroke: #ff7f0e; stroke-width: 1.5; stroke-linecap: square"/>
   </g>
   <g id="line2d_13">
    <path d="M 73.832727 53.568 
L 77.079273 90.457707 
L 80.325818 143.936536 
L 83.572364 144.330176 
L 86.818909 144.330176 
L 90.065455 156.64549 
L 93.312 169.748084 
L 96.558545 176.889841 
L 99.805091 176.889841 
L 103.051636 176.889841 
L 106.298182 176.889841 
L 109.544727 176.889841 
L 112.791273 181.163649 
L 116.037818 181.557289 
L 119.284364 181.557289 
L 122.530909 181.557289 
L 125.777455 181.557289 
L 129.024 183.300552 
L 132.270545 183.300552 
L 135.517091 183.300552 
L 138.763636 185.10005 
L 142.010182 185.10005 
L 145.256727 185.10005 
L 148.503273 187.236954 
L 151.749818 187.236954 
L 154.996364 187.236954 
L 158.242909 187.236954 
L 161.489455 187.236954 
L 164.736 187.236954 
L 167.982545 202.307749 
L 171.229091 214.848 
L 174.475636 214.848 
L 177.722182 214.848 
L 180.968727 214.848 
L 184.215273 214.848 
L 187.461818 214.848 
L 190.708364 217.603481 
L 193.954909 217.603481 
L 197.201455 218.671933 
L 200.448 218.671933 
L 203.694545 218.671933 
L 206.941091 218.671933 
L 210.187636 218.671933 
L 213.434182 218.671933 
L 216.680727 218.671933 
L 219.927273 218.671933 
L 223.173818 218.671933 
L 226.420364 218.671933 
L 229.666909 218.671933 
L 232.913455 218.671933 
L 236.16 218.671933 
L 239.406545 218.671933 
L 242.653091 218.671933 
L 245.899636 224.407833 
L 249.146182 224.407833 
L 252.392727 229.637623 
L 255.639273 229.637623 
L 258.885818 229.637623 
L 262.132364 229.637623 
L 265.378909 231.043481 
L 268.625455 231.043481 
L 271.872 231.043481 
L 275.118545 231.043481 
L 278.365091 231.043481 
L 281.611636 234.136368 
L 284.858182 234.136368 
L 288.104727 234.136368 
L 291.351273 234.136368 
L 294.597818 234.136368 
L 297.844364 234.136368 
L 301.090909 234.136368 
L 304.337455 234.136368 
L 307.584 234.136368 
L 310.830545 234.136368 
L 314.077091 234.136368 
L 317.323636 234.136368 
L 320.570182 234.136368 
L 323.816727 234.136368 
L 327.063273 234.136368 
L 330.309818 234.136368 
L 333.556364 234.136368 
L 336.802909 234.136368 
L 340.049455 234.136368 
L 343.296 234.136368 
L 346.542545 234.136368 
L 349.789091 234.136368 
L 353.035636 237.791598 
L 356.282182 237.791598 
L 359.528727 237.791598 
L 362.775273 237.791598 
L 366.021818 237.791598 
L 369.268364 237.791598 
L 372.514909 237.791598 
L 375.761455 237.791598 
L 379.008 237.791598 
L 382.254545 243.527498 
L 385.501091 243.527498 
L 388.747636 243.527498 
L 391.994182 243.527498 
L 395.240727 243.527498 
L 398.487273 243.527498 
" clip-path="url(#p13de1cf77b)" style="fill: none; stroke: #2ca02c; stroke-width: 1.5; stroke-linecap: square"/>
   </g>
   <g id="line2d_14">
    <path d="M 73.832727 86.465071 
L 77.079273 165.699213 
L 80.325818 178.97051 
L 83.572364 180.882477 
L 86.818909 180.882477 
L 90.065455 194.49118 
L 93.312 194.49118 
L 96.558545 200.845657 
L 99.805091 200.845657 
L 103.051636 200.845657 
L 106.298182 201.689172 
L 109.544727 213.273439 
L 112.791273 213.273439 
L 116.037818 213.273439 
L 119.284364 213.273439 
L 122.530909 232.224402 
L 125.777455 232.224402 
L 129.024 232.224402 
L 132.270545 232.561808 
L 135.517091 232.561808 
L 138.763636 232.561808 
L 142.010182 232.561808 
L 145.256727 232.561808 
L 148.503273 236.160803 
L 151.749818 245.214527 
L 154.996364 245.214527 
L 158.242909 245.214527 
L 161.489455 245.214527 
L 164.736 245.214527 
L 167.982545 256.405155 
L 171.229091 256.405155 
L 174.475636 256.405155 
L 177.722182 256.405155 
L 180.968727 256.405155 
L 184.215273 256.405155 
L 187.461818 256.405155 
L 190.708364 256.405155 
L 193.954909 256.405155 
L 197.201455 256.405155 
L 200.448 256.405155 
L 203.694545 256.405155 
L 206.941091 256.405155 
L 210.187636 256.405155 
L 213.434182 256.405155 
L 216.680727 256.405155 
L 219.927273 256.405155 
L 223.173818 268.945406 
L 226.420364 268.945406 
L 229.666909 268.945406 
L 232.913455 268.945406 
L 236.16 268.945406 
L 239.406545 268.945406 
L 242.653091 268.945406 
L 245.899636 268.945406 
L 249.146182 268.945406 
L 252.392727 268.945406 
L 255.639273 268.945406 
L 258.885818 268.945406 
L 262.132364 268.945406 
L 265.378909 268.945406 
L 268.625455 268.945406 
L 271.872 268.945406 
L 275.118545 268.945406 
L 278.365091 271.982059 
L 281.611636 271.982059 
L 284.858182 271.982059 
L 288.104727 271.982059 
L 291.351273 271.982059 
L 294.597818 271.982059 
L 297.844364 271.982059 
L 301.090909 271.982059 
L 304.337455 271.982059 
L 307.584 271.982059 
L 310.830545 271.982059 
L 314.077091 271.982059 
L 317.323636 271.982059 
L 320.570182 271.982059 
L 323.816727 271.982059 
L 327.063273 271.982059 
L 330.309818 271.982059 
L 333.556364 271.982059 
L 336.802909 271.982059 
L 340.049455 271.982059 
L 343.296 271.982059 
L 346.542545 271.982059 
L 349.789091 271.982059 
L 353.035636 288.514946 
L 356.282182 288.514946 
L 359.528727 288.514946 
L 362.775273 288.514946 
L 366.021818 288.514946 
L 369.268364 288.514946 
L 372.514909 288.514946 
L 375.761455 288.514946 
L 379.008 288.514946 
L 382.254545 288.514946 
L 385.501091 288.514946 
L 388.747636 288.514946 
L 391.994182 295.488 
L 395.240727 295.488 
L 398.487273 295.488 
" clip-path="url(#p13de1cf77b)" style="fill: none; stroke: #d62728; stroke-width: 1.5; stroke-linecap: square"/>
   </g>
   <g id="patch_3">
    <path d="M 57.6 307.584 
L 57.6 41.472 
" style="fill: none; stroke: #000000; stroke-width: 0.8; stroke-linejoin: miter; stroke-linecap: square"/>
   </g>
   <g id="patch_4">
    <path d="M 414.72 307.584 
L 414.72 41.472 
" style="fill: none; stroke: #000000; stroke-width: 0.8; stroke-linejoin: miter; stroke-linecap: square"/>
   </g>
   <g id="patch_5">
    <path d="M 57.6 307.584 
L 414.72 307.584 
" style="fill: none; stroke: #000000; stroke-width: 0.8; stroke-linejoin: miter; stroke-linecap: square"/>
   </g>
   <g id="patch_6">
    <path d="M 57.6 41.472 
L 414.72 41.472 
" style="fill: none; stroke: #000000; stroke-width: 0.8; stroke-linejoin: miter; stroke-linecap: square"/>
   </g>
   <g id="legend_1">
    <g id="patch_7">
     <path d="M 169.143437 108.1845 
L 407.72 108.1845 
Q 409.72 108.1845 409.72 106.1845 
L 409.72 48.472 
Q 409.72 46.472 407.72 46.472 
L 169.143437 46.472 
Q 167.143437 46.472 167.143437 48.472 
L 167.143437 106.1845 
Q 167.143437 108.1845 169.143437 108.1845 
z
" style="fill: #ffffff; opacity: 0.8; stroke: #cccccc; stroke-linejoin: miter"/>
    </g>
    <g id="line2d_15">
     <path d="M 171.143437 54.570438 
L 181.143437 54.570438 
L 191.143437 54.570438 
" style="fill: none; stroke: #1f77b4; stroke-width: 1.5; stroke-linecap: square"/>
    </g>
    <g id="text_11">
     <!-- Vertex Move Mutation [fc=0.05, fv=0.05] -->
     <g transform="translate(199.143437 58.070438) scale(0.1 -0.1)">
      <defs>
       <path id="DejaVuSans-56" d="M 1831 0 
L 50 4666 
L 709 4666 
L 2188 738 
L 3669 4666 
L 4325 4666 
L 2547 0 
L 1831 0 
z
" transform="scale(0.015625)"/>
       <path id="DejaVuSans-65" d="M 3597 1894 
L 3597 1613 
L 953 1613 
Q 991 1019 1311 708 
Q 1631 397 2203 397 
Q 2534 397 2845 478 
Q 3156 559 3463 722 
L 3463 178 
Q 3153 47 2828 -22 
Q 2503 -91 2169 -91 
Q 1331 -91 842 396 
Q 353 884 353 1716 
Q 353 2575 817 3079 
Q 1281 3584 2069 3584 
Q 2775 3584 3186 3129 
Q 3597 2675 3597 1894 
z
M 3022 2063 
Q 3016 2534 2758 2815 
Q 2500 3097 2075 3097 
Q 1594 3097 1305 2825 
Q 1016 2553 972 2059 
L 3022 2063 
z
" transform="scale(0.015625)"/>
       <path id="DejaVuSans-72" d="M 2631 2963 
Q 2534 3019 2420 3045 
Q 2306 3072 2169 3072 
Q 1681 3072 1420 2755 
Q 1159 2438 1159 1844 
L 1159 0 
L 581 0 
L 581 3500 
L 1159 3500 
L 1159 2956 
Q 1341 3275 1631 3429 
Q 1922 3584 2338 3584 
Q 2397 3584 2469 3576 
Q 2541 3569 2628 3553 
L 2631 2963 
z
" transform="scale(0.015625)"/>
       <path id="DejaVuSans-74" d="M 1172 4494 
L 1172 3500 
L 2356 3500 
L 2356 3053 
L 1172 3053 
L 1172 1153 
Q 1172 725 1289 603 
Q 1406 481 1766 481 
L 2356 481 
L 2356 0 
L 1766 0 
Q 1100 0 847 248 
Q 594 497 594 1153 
L 594 3053 
L 172 3053 
L 172 3500 
L 594 3500 
L 594 4494 
L 1172 4494 
z
" transform="scale(0.015625)"/>
       <path id="DejaVuSans-78" d="M 3513 3500 
L 2247 1797 
L 3578 0 
L 2900 0 
L 1881 1375 
L 863 0 
L 184 0 
L 1544 1831 
L 300 3500 
L 978 3500 
L 1906 2253 
L 2834 3500 
L 3513 3500 
z
" transform="scale(0.015625)"/>
       <path id="DejaVuSans-20" transform="scale(0.015625)"/>
       <path id="DejaVuSans-4d" d="M 628 4666 
L 1569 4666 
L 2759 1491 
L 3956 4666 
L 4897 4666 
L 4897 0 
L 4281 0 
L 4281 4097 
L 3078 897 
L 2444 897 
L 1241 4097 
L 1241 0 
L 628 0 
L 628 4666 
z
" transform="scale(0.015625)"/>
       <path id="DejaVuSans-6f" d="M 1959 3097 
Q 1497 3097 1228 2736 
Q 959 2375 959 1747 
Q 959 1119 1226 758 
Q 1494 397 1959 397 
Q 2419 397 2687 759 
Q 2956 1122 2956 1747 
Q 2956 2369 2687 2733 
Q 2419 3097 1959 3097 
z
M 1959 3584 
Q 2709 3584 3137 3096 
Q 3566 2609 3566 1747 
Q 3566 888 3137 398 
Q 2709 -91 1959 -91 
Q 1206 -91 779 398 
Q 353 888 353 1747 
Q 353 2609 779 3096 
Q 1206 3584 1959 3584 
z
" transform="scale(0.015625)"/>
       <path id="DejaVuSans-76" d="M 191 3500 
L 800 3500 
L 1894 563 
L 2988 3500 
L 3597 3500 
L 2284 0 
L 1503 0 
L 191 3500 
z
" transform="scale(0.015625)"/>
       <path id="DejaVuSans-75" d="M 544 1381 
L 544 3500 
L 1119 3500 
L 1119 1403 
Q 1119 906 1312 657 
Q 1506 409 1894 409 
Q 2359 409 2629 706 
Q 2900 1003 2900 1516 
L 2900 3500 
L 3475 3500 
L 3475 0 
L 2900 0 
L 2900 538 
Q 2691 219 2414 64 
Q 2138 -91 1772 -91 
Q 1169 -91 856 284 
Q 544 659 544 1381 
z
M 1991 3584 
L 1991 3584 
z
" transform="scale(0.015625)"/>
       <path id="DejaVuSans-61" d="M 2194 1759 
Q 1497 1759 1228 1600 
Q 959 1441 959 1056 
Q 959 750 1161 570 
Q 1363 391 1709 391 
Q 2188 391 2477 730 
Q 2766 1069 2766 1631 
L 2766 1759 
L 2194 1759 
z
M 3341 1997 
L 3341 0 
L 2766 0 
L 2766 531 
Q 2569 213 2275 61 
Q 1981 -91 1556 -91 
Q 1019 -91 701 211 
Q 384 513 384 1019 
Q 384 1609 779 1909 
Q 1175 2209 1959 2209 
L 2766 2209 
L 2766 2266 
Q 2766 2663 2505 2880 
Q 2244 3097 1772 3097 
Q 1472 3097 1187 3025 
Q 903 2953 641 2809 
L 641 3341 
Q 956 3463 1253 3523 
Q 1550 3584 1831 3584 
Q 2591 3584 2966 3190 
Q 3341 2797 3341 1997 
z
" transform="scale(0.015625)"/>
       <path id="DejaVuSans-69" d="M 603 3500 
L 1178 3500 
L 1178 0 
L 603 0 
L 603 3500 
z
M 603 4863 
L 1178 4863 
L 1178 4134 
L 603 4134 
L 603 4863 
z
" transform="scale(0.015625)"/>
       <path id="DejaVuSans-6e" d="M 3513 2113 
L 3513 0 
L 2938 0 
L 2938 2094 
Q 2938 2591 2744 2837 
Q 2550 3084 2163 3084 
Q 1697 3084 1428 2787 
Q 1159 2491 1159 1978 
L 1159 0 
L 581 0 
L 581 3500 
L 1159 3500 
L 1159 2956 
Q 1366 3272 1645 3428 
Q 1925 3584 2291 3584 
Q 2894 3584 3203 3211 
Q 3513 2838 3513 2113 
z
" transform="scale(0.015625)"/>
       <path id="DejaVuSans-5b" d="M 550 4863 
L 1875 4863 
L 1875 4416 
L 1125 4416 
L 1125 -397 
L 1875 -397 
L 1875 -844 
L 550 -844 
L 550 4863 
z
" transform="scale(0.015625)"/>
       <path id="DejaVuSans-66" d="M 2375 4863 
L 2375 4384 
L 1825 4384 
Q 1516 4384 1395 4259 
Q 1275 4134 1275 3809 
L 1275 3500 
L 2222 3500 
L 2222 3053 
L 1275 3053 
L 1275 0 
L 697 0 
L 697 3053 
L 147 3053 
L 147 3500 
L 697 3500 
L 697 3744 
Q 697 4328 969 4595 
Q 1241 4863 1831 4863 
L 2375 4863 
z
" transform="scale(0.015625)"/>
       <path id="DejaVuSans-63" d="M 3122 3366 
L 3122 2828 
Q 2878 2963 2633 3030 
Q 2388 3097 2138 3097 
Q 1578 3097 1268 2742 
Q 959 2388 959 1747 
Q 959 1106 1268 751 
Q 1578 397 2138 397 
Q 2388 397 2633 464 
Q 2878 531 3122 666 
L 3122 134 
Q 2881 22 2623 -34 
Q 2366 -91 2075 -91 
Q 1284 -91 818 406 
Q 353 903 353 1747 
Q 353 2603 823 3093 
Q 1294 3584 2113 3584 
Q 2378 3584 2631 3529 
Q 2884 3475 3122 3366 
z
" transform="scale(0.015625)"/>
       <path id="DejaVuSans-3d" d="M 678 2906 
L 4684 2906 
L 4684 2381 
L 678 2381 
L 678 2906 
z
M 678 1631 
L 4684 1631 
L 4684 1100 
L 678 1100 
L 678 1631 
z
" transform="scale(0.015625)"/>
       <path id="DejaVuSans-2e" d="M 684 794 
L 1344 794 
L 1344 0 
L 684 0 
L 684 794 
z
" transform="scale(0.015625)"/>
       <path id="DejaVuSans-2c" d="M 750 794 
L 1409 794 
L 1409 256 
L 897 -744 
L 494 -744 
L 750 256 
L 750 794 
z
" transform="scale(0.015625)"/>
       <path id="DejaVuSans-5d" d="M 1947 4863 
L 1947 -844 
L 622 -844 
L 622 -397 
L 1369 -397 
L 1369 4416 
L 622 4416 
L 622 4863 
L 1947 4863 
z
" transform="scale(0.015625)"/>
      </defs>
      <use xlink:href="#DejaVuSans-56"/>
      <use xlink:href="#DejaVuSans-65" x="60.658203"/>
      <use xlink:href="#DejaVuSans-72" x="122.181641"/>
      <use xlink:href="#DejaVuSans-74" x="163.294922"/>
      <use xlink:href="#DejaVuSans-65" x="202.503906"/>
      <use xlink:href="#DejaVuSans-78" x="262.277344"/>
      <use xlink:href="#DejaVuSans-20" x="321.457031"/>
      <use xlink:href="#DejaVuSans-4d" x="353.244141"/>
      <use xlink:href="#DejaVuSans-6f" x="439.523438"/>
      <use xlink:href="#DejaVuSans-76" x="500.705078"/>
      <use xlink:href="#DejaVuSans-65" x="559.884766"/>
      <use xlink:href="#DejaVuSans-20" x="621.408203"/>
      <use xlink:href="#DejaVuSans-4d" x="653.195312"/>
      <use xlink:href="#DejaVuSans-75" x="739.474609"/>
      <use xlink:href="#DejaVuSans-74" x="802.853516"/>
      <use xlink:href="#DejaVuSans-61" x="842.0625"/>
      <use xlink:href="#DejaVuSans-74" x="903.341797"/>
      <use xlink:href="#DejaVuSans-69" x="942.550781"/>
      <use xlink:href="#DejaVuSans-6f" x="970.333984"/>
      <use xlink:href="#DejaVuSans-6e" x="1031.515625"/>
      <use xlink:href="#DejaVuSans-20" x="1094.894531"/>
      <use xlink:href="#DejaVuSans-5b" x="1126.681641"/>
      <use xlink:href="#DejaVuSans-66" x="1165.695312"/>
      <use xlink:href="#DejaVuSans-63" x="1200.900391"/>
      <use xlink:href="#DejaVuSans-3d" x="1255.880859"/>
      <use xlink:href="#DejaVuSans-30" x="1339.669922"/>
      <use xlink:href="#DejaVuSans-2e" x="1403.292969"/>
      <use xlink:href="#DejaVuSans-30" x="1435.080078"/>
      <use xlink:href="#DejaVuSans-35" x="1498.703125"/>
      <use xlink:href="#DejaVuSans-2c" x="1562.326172"/>
      <use xlink:href="#DejaVuSans-20" x="1594.113281"/>
      <use xlink:href="#DejaVuSans-66" x="1625.900391"/>
      <use xlink:href="#DejaVuSans-76" x="1661.105469"/>
      <use xlink:href="#DejaVuSans-3d" x="1720.285156"/>
      <use xlink:href="#DejaVuSans-30" x="1804.074219"/>
      <use xlink:href="#DejaVuSans-2e" x="1867.697266"/>
      <use xlink:href="#DejaVuSans-30" x="1899.484375"/>
      <use xlink:href="#DejaVuSans-35" x="1963.107422"/>
      <use xlink:href="#DejaVuSans-5d" x="2026.730469"/>
     </g>
    </g>
    <g id="line2d_16">
     <path d="M 171.143437 69.248563 
L 181.143437 69.248563 
L 191.143437 69.248563 
" style="fill: none; stroke: #ff7f0e; stroke-width: 1.5; stroke-linecap: square"/>
    </g>
    <g id="text_12">
     <!-- Vertex Move Mutation [fc=0.25, fv=0.25] -->
     <g transform="translate(199.143437 72.748563) scale(0.1 -0.1)">
      <use xlink:href="#DejaVuSans-56"/>
      <use xlink:href="#DejaVuSans-65" x="60.658203"/>
      <use xlink:href="#DejaVuSans-72" x="122.181641"/>
      <use xlink:href="#DejaVuSans-74" x="163.294922"/>
      <use xlink:href="#DejaVuSans-65" x="202.503906"/>
      <use xlink:href="#DejaVuSans-78" x="262.277344"/>
      <use xlink:href="#DejaVuSans-20" x="321.457031"/>
      <use xlink:href="#DejaVuSans-4d" x="353.244141"/>
      <use xlink:href="#DejaVuSans-6f" x="439.523438"/>
      <use xlink:href="#DejaVuSans-76" x="500.705078"/>
      <use xlink:href="#DejaVuSans-65" x="559.884766"/>
      <use xlink:href="#DejaVuSans-20" x="621.408203"/>
      <use xlink:href="#DejaVuSans-4d" x="653.195312"/>
      <use xlink:href="#DejaVuSans-75" x="739.474609"/>
      <use xlink:href="#DejaVuSans-74" x="802.853516"/>
      <use xlink:href="#DejaVuSans-61" x="842.0625"/>
      <use xlink:href="#DejaVuSans-74" x="903.341797"/>
      <use xlink:href="#DejaVuSans-69" x="942.550781"/>
      <use xlink:href="#DejaVuSans-6f" x="970.333984"/>
      <use xlink:href="#DejaVuSans-6e" x="1031.515625"/>
      <use xlink:href="#DejaVuSans-20" x="1094.894531"/>
      <use xlink:href="#DejaVuSans-5b" x="1126.681641"/>
      <use xlink:href="#DejaVuSans-66" x="1165.695312"/>
      <use xlink:href="#DejaVuSans-63" x="1200.900391"/>
      <use xlink:href="#DejaVuSans-3d" x="1255.880859"/>
      <use xlink:href="#DejaVuSans-30" x="1339.669922"/>
      <use xlink:href="#DejaVuSans-2e" x="1403.292969"/>
      <use xlink:href="#DejaVuSans-32" x="1435.080078"/>
      <use xlink:href="#DejaVuSans-35" x="1498.703125"/>
      <use xlink:href="#DejaVuSans-2c" x="1562.326172"/>
      <use xlink:href="#DejaVuSans-20" x="1594.113281"/>
      <use xlink:href="#DejaVuSans-66" x="1625.900391"/>
      <use xlink:href="#DejaVuSans-76" x="1661.105469"/>
      <use xlink:href="#DejaVuSans-3d" x="1720.285156"/>
      <use xlink:href="#DejaVuSans-30" x="1804.074219"/>
      <use xlink:href="#DejaVuSans-2e" x="1867.697266"/>
      <use xlink:href="#DejaVuSans-32" x="1899.484375"/>
      <use xlink:href="#DejaVuSans-35" x="1963.107422"/>
      <use xlink:href="#DejaVuSans-5d" x="2026.730469"/>
     </g>
    </g>
    <g id="line2d_17">
     <path d="M 171.143437 83.926688 
L 181.143437 83.926688 
L 191.143437 83.926688 
" style="fill: none; stroke: #2ca02c; stroke-width: 1.5; stroke-linecap: square"/>
    </g>
    <g id="text_13">
     <!-- Vertex Move Mutation [fc=0.5, fv=0.5] -->
     <g transform="translate(199.143437 87.426688) scale(0.1 -0.1)">
      <use xlink:href="#DejaVuSans-56"/>
      <use xlink:href="#DejaVuSans-65" x="60.658203"/>
      <use xlink:href="#DejaVuSans-72" x="122.181641"/>
      <use xlink:href="#DejaVuSans-74" x="163.294922"/>
      <use xlink:href="#DejaVuSans-65" x="202.503906"/>
      <use xlink:href="#DejaVuSans-78" x="262.277344"/>
      <use xlink:href="#DejaVuSans-20" x="321.457031"/>
      <use xlink:href="#DejaVuSans-4d" x="353.244141"/>
      <use xlink:href="#DejaVuSans-6f" x="439.523438"/>
      <use xlink:href="#DejaVuSans-76" x="500.705078"/>
      <use xlink:href="#DejaVuSans-65" x="559.884766"/>
      <use xlink:href="#DejaVuSans-20" x="621.408203"/>
      <use xlink:href="#DejaVuSans-4d" x="653.195312"/>
      <use xlink:href="#DejaVuSans-75" x="739.474609"/>
      <use xlink:href="#DejaVuSans-74" x="802.853516"/>
      <use xlink:href="#DejaVuSans-61" x="842.0625"/>
      <use xlink:href="#DejaVuSans-74" x="903.341797"/>
      <use xlink:href="#DejaVuSans-69" x="942.550781"/>
      <use xlink:href="#DejaVuSans-6f" x="970.333984"/>
      <use xlink:href="#DejaVuSans-6e" x="1031.515625"/>
      <use xlink:href="#DejaVuSans-20" x="1094.894531"/>
      <use xlink:href="#DejaVuSans-5b" x="1126.681641"/>
      <use xlink:href="#DejaVuSans-66" x="1165.695312"/>
      <use xlink:href="#DejaVuSans-63" x="1200.900391"/>
      <use xlink:href="#DejaVuSans-3d" x="1255.880859"/>
      <use xlink:href="#DejaVuSans-30" x="1339.669922"/>
      <use xlink:href="#DejaVuSans-2e" x="1403.292969"/>
      <use xlink:href="#DejaVuSans-35" x="1435.080078"/>
      <use xlink:href="#DejaVuSans-2c" x="1498.703125"/>
      <use xlink:href="#DejaVuSans-20" x="1530.490234"/>
      <use xlink:href="#DejaVuSans-66" x="1562.277344"/>
      <use xlink:href="#DejaVuSans-76" x="1597.482422"/>
      <use xlink:href="#DejaVuSans-3d" x="1656.662109"/>
      <use xlink:href="#DejaVuSans-30" x="1740.451172"/>
      <use xlink:href="#DejaVuSans-2e" x="1804.074219"/>
      <use xlink:href="#DejaVuSans-35" x="1835.861328"/>
      <use xlink:href="#DejaVuSans-5d" x="1899.484375"/>
     </g>
    </g>
    <g id="line2d_18">
     <path d="M 171.143437 98.604813 
L 181.143437 98.604813 
L 191.143437 98.604813 
" style="fill: none; stroke: #d62728; stroke-width: 1.5; stroke-linecap: square"/>
    </g>
    <g id="text_14">
     <!-- Vertex Move Mutation [fc=0.75, fv=0.75] -->
     <g transform="translate(199.143437 102.104813) scale(0.1 -0.1)">
      <defs>
       <path id="DejaVuSans-37" d="M 525 4666 
L 3525 4666 
L 3525 4397 
L 1831 0 
L 1172 0 
L 2766 4134 
L 525 4134 
L 525 4666 
z
" transform="scale(0.015625)"/>
      </defs>
      <use xlink:href="#DejaVuSans-56"/>
      <use xlink:href="#DejaVuSans-65" x="60.658203"/>
      <use xlink:href="#DejaVuSans-72" x="122.181641"/>
      <use xlink:href="#DejaVuSans-74" x="163.294922"/>
      <use xlink:href="#DejaVuSans-65" x="202.503906"/>
      <use xlink:href="#DejaVuSans-78" x="262.277344"/>
      <use xlink:href="#DejaVuSans-20" x="321.457031"/>
      <use xlink:href="#DejaVuSans-4d" x="353.244141"/>
      <use xlink:href="#DejaVuSans-6f" x="439.523438"/>
      <use xlink:href="#DejaVuSans-76" x="500.705078"/>
      <use xlink:href="#DejaVuSans-65" x="559.884766"/>
      <use xlink:href="#DejaVuSans-20" x="621.408203"/>
      <use xlink:href="#DejaVuSans-4d" x="653.195312"/>
      <use xlink:href="#DejaVuSans-75" x="739.474609"/>
      <use xlink:href="#DejaVuSans-74" x="802.853516"/>
      <use xlink:href="#DejaVuSans-61" x="842.0625"/>
      <use xlink:href="#DejaVuSans-74" x="903.341797"/>
      <use xlink:href="#DejaVuSans-69" x="942.550781"/>
      <use xlink:href="#DejaVuSans-6f" x="970.333984"/>
      <use xlink:href="#DejaVuSans-6e" x="1031.515625"/>
      <use xlink:href="#DejaVuSans-20" x="1094.894531"/>
      <use xlink:href="#DejaVuSans-5b" x="1126.681641"/>
      <use xlink:href="#DejaVuSans-66" x="1165.695312"/>
      <use xlink:href="#DejaVuSans-63" x="1200.900391"/>
      <use xlink:href="#DejaVuSans-3d" x="1255.880859"/>
      <use xlink:href="#DejaVuSans-30" x="1339.669922"/>
      <use xlink:href="#DejaVuSans-2e" x="1403.292969"/>
      <use xlink:href="#DejaVuSans-37" x="1435.080078"/>
      <use xlink:href="#DejaVuSans-35" x="1498.703125"/>
      <use xlink:href="#DejaVuSans-2c" x="1562.326172"/>
      <use xlink:href="#DejaVuSans-20" x="1594.113281"/>
      <use xlink:href="#DejaVuSans-66" x="1625.900391"/>
      <use xlink:href="#DejaVuSans-76" x="1661.105469"/>
      <use xlink:href="#DejaVuSans-3d" x="1720.285156"/>
      <use xlink:href="#DejaVuSans-30" x="1804.074219"/>
      <use xlink:href="#DejaVuSans-2e" x="1867.697266"/>
      <use xlink:href="#DejaVuSans-37" x="1899.484375"/>
      <use xlink:href="#DejaVuSans-35" x="1963.107422"/>
      <use xlink:href="#DejaVuSans-5d" x="2026.730469"/>
     </g>
    </g>
   </g>
  </g>
 </g>
 <defs>
  <clipPath id="p13de1cf77b">
   <rect x="57.6" y="41.472" width="357.12" height="266.112"/>
  </clipPath>
 </defs>
</svg>
