<?xml version="1.0" encoding="utf-8" standalone="no"?>
<!DOCTYPE svg PUBLIC "-//W3C//DTD SVG 1.1//EN"
  "http://www.w3.org/Graphics/SVG/1.1/DTD/svg11.dtd">
<svg xmlns:xlink="http://www.w3.org/1999/xlink" width="460.8pt" height="345.6pt" viewBox="0 0 460.8 345.6" xmlns="http://www.w3.org/2000/svg" version="1.1">
 <metadata>
  <rdf:RDF xmlns:dc="http://purl.org/dc/elements/1.1/" xmlns:cc="http://creativecommons.org/ns#" xmlns:rdf="http://www.w3.org/1999/02/22-rdf-syntax-ns#">
   <cc:Work>
    <dc:type rdf:resource="http://purl.org/dc/dcmitype/StillImage"/>
    <dc:date>2024-01-12T14:17:54.725146</dc:date>
    <dc:format>image/svg+xml</dc:format>
    <dc:creator>
     <cc:Agent>
      <dc:title>Matplotlib v3.8.2, https://matplotlib.org/</dc:title>
     </cc:Agent>
    </dc:creator>
   </cc:Work>
  </rdf:RDF>
 </metadata>
 <defs>
  <style type="text/css">*{stroke-linejoin: round; stroke-linecap: butt}</style>
 </defs>
 <g id="figure_1">
  <g id="patch_1">
   <path d="M 0 345.6 
L 460.8 345.6 
L 460.8 0 
L 0 0 
z
" style="fill: #ffffff"/>
  </g>
  <g id="axes_1">
   <g id="patch_2">
    <path d="M 57.6 307.584 
L 414.72 307.584 
L 414.72 41.472 
L 57.6 41.472 
z
" style="fill: #ffffff"/>
   </g>
   <g id="matplotlib.axis_1">
    <g id="xtick_1">
     <g id="line2d_1">
      <defs>
       <path id="mb64efea800" d="M 0 0 
L 0 3.5 
" style="stroke: #000000; stroke-width: 0.8"/>
      </defs>
      <g>
       <use xlink:href="#mb64efea800" x="73.832727" y="307.584" style="stroke: #000000; stroke-width: 0.8"/>
      </g>
     </g>
     <g id="text_1">
      <!-- 0 -->
      <g transform="translate(70.651477 322.182437) scale(0.1 -0.1)">
       <defs>
        <path id="DejaVuSans-30" d="M 2034 4250 
Q 1547 4250 1301 3770 
Q 1056 3291 1056 2328 
Q 1056 1369 1301 889 
Q 1547 409 2034 409 
Q 2525 409 2770 889 
Q 3016 1369 3016 2328 
Q 3016 3291 2770 3770 
Q 2525 4250 2034 4250 
z
M 2034 4750 
Q 2819 4750 3233 4129 
Q 3647 3509 3647 2328 
Q 3647 1150 3233 529 
Q 2819 -91 2034 -91 
Q 1250 -91 836 529 
Q 422 1150 422 2328 
Q 422 3509 836 4129 
Q 1250 4750 2034 4750 
z
" transform="scale(0.015625)"/>
       </defs>
       <use xlink:href="#DejaVuSans-30"/>
      </g>
     </g>
    </g>
    <g id="xtick_2">
     <g id="line2d_2">
      <g>
       <use xlink:href="#mb64efea800" x="138.763636" y="307.584" style="stroke: #000000; stroke-width: 0.8"/>
      </g>
     </g>
     <g id="text_2">
      <!-- 20 -->
      <g transform="translate(132.401136 322.182437) scale(0.1 -0.1)">
       <defs>
        <path id="DejaVuSans-32" d="M 1228 531 
L 3431 531 
L 3431 0 
L 469 0 
L 469 531 
Q 828 903 1448 1529 
Q 2069 2156 2228 2338 
Q 2531 2678 2651 2914 
Q 2772 3150 2772 3378 
Q 2772 3750 2511 3984 
Q 2250 4219 1831 4219 
Q 1534 4219 1204 4116 
Q 875 4013 500 3803 
L 500 4441 
Q 881 4594 1212 4672 
Q 1544 4750 1819 4750 
Q 2544 4750 2975 4387 
Q 3406 4025 3406 3419 
Q 3406 3131 3298 2873 
Q 3191 2616 2906 2266 
Q 2828 2175 2409 1742 
Q 1991 1309 1228 531 
z
" transform="scale(0.015625)"/>
       </defs>
       <use xlink:href="#DejaVuSans-32"/>
       <use xlink:href="#DejaVuSans-30" x="63.623047"/>
      </g>
     </g>
    </g>
    <g id="xtick_3">
     <g id="line2d_3">
      <g>
       <use xlink:href="#mb64efea800" x="203.694545" y="307.584" style="stroke: #000000; stroke-width: 0.8"/>
      </g>
     </g>
     <g id="text_3">
      <!-- 40 -->
      <g transform="translate(197.332045 322.182437) scale(0.1 -0.1)">
       <defs>
        <path id="DejaVuSans-34" d="M 2419 4116 
L 825 1625 
L 2419 1625 
L 2419 4116 
z
M 2253 4666 
L 3047 4666 
L 3047 1625 
L 3713 1625 
L 3713 1100 
L 3047 1100 
L 3047 0 
L 2419 0 
L 2419 1100 
L 313 1100 
L 313 1709 
L 2253 4666 
z
" transform="scale(0.015625)"/>
       </defs>
       <use xlink:href="#DejaVuSans-34"/>
       <use xlink:href="#DejaVuSans-30" x="63.623047"/>
      </g>
     </g>
    </g>
    <g id="xtick_4">
     <g id="line2d_4">
      <g>
       <use xlink:href="#mb64efea800" x="268.625455" y="307.584" style="stroke: #000000; stroke-width: 0.8"/>
      </g>
     </g>
     <g id="text_4">
      <!-- 60 -->
      <g transform="translate(262.262955 322.182437) scale(0.1 -0.1)">
       <defs>
        <path id="DejaVuSans-36" d="M 2113 2584 
Q 1688 2584 1439 2293 
Q 1191 2003 1191 1497 
Q 1191 994 1439 701 
Q 1688 409 2113 409 
Q 2538 409 2786 701 
Q 3034 994 3034 1497 
Q 3034 2003 2786 2293 
Q 2538 2584 2113 2584 
z
M 3366 4563 
L 3366 3988 
Q 3128 4100 2886 4159 
Q 2644 4219 2406 4219 
Q 1781 4219 1451 3797 
Q 1122 3375 1075 2522 
Q 1259 2794 1537 2939 
Q 1816 3084 2150 3084 
Q 2853 3084 3261 2657 
Q 3669 2231 3669 1497 
Q 3669 778 3244 343 
Q 2819 -91 2113 -91 
Q 1303 -91 875 529 
Q 447 1150 447 2328 
Q 447 3434 972 4092 
Q 1497 4750 2381 4750 
Q 2619 4750 2861 4703 
Q 3103 4656 3366 4563 
z
" transform="scale(0.015625)"/>
       </defs>
       <use xlink:href="#DejaVuSans-36"/>
       <use xlink:href="#DejaVuSans-30" x="63.623047"/>
      </g>
     </g>
    </g>
    <g id="xtick_5">
     <g id="line2d_5">
      <g>
       <use xlink:href="#mb64efea800" x="333.556364" y="307.584" style="stroke: #000000; stroke-width: 0.8"/>
      </g>
     </g>
     <g id="text_5">
      <!-- 80 -->
      <g transform="translate(327.193864 322.182437) scale(0.1 -0.1)">
       <defs>
        <path id="DejaVuSans-38" d="M 2034 2216 
Q 1584 2216 1326 1975 
Q 1069 1734 1069 1313 
Q 1069 891 1326 650 
Q 1584 409 2034 409 
Q 2484 409 2743 651 
Q 3003 894 3003 1313 
Q 3003 1734 2745 1975 
Q 2488 2216 2034 2216 
z
M 1403 2484 
Q 997 2584 770 2862 
Q 544 3141 544 3541 
Q 544 4100 942 4425 
Q 1341 4750 2034 4750 
Q 2731 4750 3128 4425 
Q 3525 4100 3525 3541 
Q 3525 3141 3298 2862 
Q 3072 2584 2669 2484 
Q 3125 2378 3379 2068 
Q 3634 1759 3634 1313 
Q 3634 634 3220 271 
Q 2806 -91 2034 -91 
Q 1263 -91 848 271 
Q 434 634 434 1313 
Q 434 1759 690 2068 
Q 947 2378 1403 2484 
z
M 1172 3481 
Q 1172 3119 1398 2916 
Q 1625 2713 2034 2713 
Q 2441 2713 2670 2916 
Q 2900 3119 2900 3481 
Q 2900 3844 2670 4047 
Q 2441 4250 2034 4250 
Q 1625 4250 1398 4047 
Q 1172 3844 1172 3481 
z
" transform="scale(0.015625)"/>
       </defs>
       <use xlink:href="#DejaVuSans-38"/>
       <use xlink:href="#DejaVuSans-30" x="63.623047"/>
      </g>
     </g>
    </g>
    <g id="xtick_6">
     <g id="line2d_6">
      <g>
       <use xlink:href="#mb64efea800" x="398.487273" y="307.584" style="stroke: #000000; stroke-width: 0.8"/>
      </g>
     </g>
     <g id="text_6">
      <!-- 100 -->
      <g transform="translate(388.943523 322.182437) scale(0.1 -0.1)">
       <defs>
        <path id="DejaVuSans-31" d="M 794 531 
L 1825 531 
L 1825 4091 
L 703 3866 
L 703 4441 
L 1819 4666 
L 2450 4666 
L 2450 531 
L 3481 531 
L 3481 0 
L 794 0 
L 794 531 
z
" transform="scale(0.015625)"/>
       </defs>
       <use xlink:href="#DejaVuSans-31"/>
       <use xlink:href="#DejaVuSans-30" x="63.623047"/>
       <use xlink:href="#DejaVuSans-30" x="127.246094"/>
      </g>
     </g>
    </g>
   </g>
   <g id="matplotlib.axis_2">
    <g id="ytick_1">
     <g id="line2d_7">
      <defs>
       <path id="mca5c2c81f6" d="M 0 0 
L -3.5 0 
" style="stroke: #000000; stroke-width: 0.8"/>
      </defs>
      <g>
       <use xlink:href="#mca5c2c81f6" x="57.6" y="273.365037" style="stroke: #000000; stroke-width: 0.8"/>
      </g>
     </g>
     <g id="text_7">
      <!-- 23000 -->
      <g transform="translate(18.7875 277.164256) scale(0.1 -0.1)">
       <defs>
        <path id="DejaVuSans-33" d="M 2597 2516 
Q 3050 2419 3304 2112 
Q 3559 1806 3559 1356 
Q 3559 666 3084 287 
Q 2609 -91 1734 -91 
Q 1441 -91 1130 -33 
Q 819 25 488 141 
L 488 750 
Q 750 597 1062 519 
Q 1375 441 1716 441 
Q 2309 441 2620 675 
Q 2931 909 2931 1356 
Q 2931 1769 2642 2001 
Q 2353 2234 1838 2234 
L 1294 2234 
L 1294 2753 
L 1863 2753 
Q 2328 2753 2575 2939 
Q 2822 3125 2822 3475 
Q 2822 3834 2567 4026 
Q 2313 4219 1838 4219 
Q 1578 4219 1281 4162 
Q 984 4106 628 3988 
L 628 4550 
Q 988 4650 1302 4700 
Q 1616 4750 1894 4750 
Q 2613 4750 3031 4423 
Q 3450 4097 3450 3541 
Q 3450 3153 3228 2886 
Q 3006 2619 2597 2516 
z
" transform="scale(0.015625)"/>
       </defs>
       <use xlink:href="#DejaVuSans-32"/>
       <use xlink:href="#DejaVuSans-33" x="63.623047"/>
       <use xlink:href="#DejaVuSans-30" x="127.246094"/>
       <use xlink:href="#DejaVuSans-30" x="190.869141"/>
       <use xlink:href="#DejaVuSans-30" x="254.492188"/>
      </g>
     </g>
    </g>
    <g id="ytick_2">
     <g id="line2d_8">
      <g>
       <use xlink:href="#mca5c2c81f6" x="57.6" y="214.652291" style="stroke: #000000; stroke-width: 0.8"/>
      </g>
     </g>
     <g id="text_8">
      <!-- 24000 -->
      <g transform="translate(18.7875 218.45151) scale(0.1 -0.1)">
       <use xlink:href="#DejaVuSans-32"/>
       <use xlink:href="#DejaVuSans-34" x="63.623047"/>
       <use xlink:href="#DejaVuSans-30" x="127.246094"/>
       <use xlink:href="#DejaVuSans-30" x="190.869141"/>
       <use xlink:href="#DejaVuSans-30" x="254.492188"/>
      </g>
     </g>
    </g>
    <g id="ytick_3">
     <g id="line2d_9">
      <g>
       <use xlink:href="#mca5c2c81f6" x="57.6" y="155.939545" style="stroke: #000000; stroke-width: 0.8"/>
      </g>
     </g>
     <g id="text_9">
      <!-- 25000 -->
      <g transform="translate(18.7875 159.738763) scale(0.1 -0.1)">
       <defs>
        <path id="DejaVuSans-35" d="M 691 4666 
L 3169 4666 
L 3169 4134 
L 1269 4134 
L 1269 2991 
Q 1406 3038 1543 3061 
Q 1681 3084 1819 3084 
Q 2600 3084 3056 2656 
Q 3513 2228 3513 1497 
Q 3513 744 3044 326 
Q 2575 -91 1722 -91 
Q 1428 -91 1123 -41 
Q 819 9 494 109 
L 494 744 
Q 775 591 1075 516 
Q 1375 441 1709 441 
Q 2250 441 2565 725 
Q 2881 1009 2881 1497 
Q 2881 1984 2565 2268 
Q 2250 2553 1709 2553 
Q 1456 2553 1204 2497 
Q 953 2441 691 2322 
L 691 4666 
z
" transform="scale(0.015625)"/>
       </defs>
       <use xlink:href="#DejaVuSans-32"/>
       <use xlink:href="#DejaVuSans-35" x="63.623047"/>
       <use xlink:href="#DejaVuSans-30" x="127.246094"/>
       <use xlink:href="#DejaVuSans-30" x="190.869141"/>
       <use xlink:href="#DejaVuSans-30" x="254.492188"/>
      </g>
     </g>
    </g>
    <g id="ytick_4">
     <g id="line2d_10">
      <g>
       <use xlink:href="#mca5c2c81f6" x="57.6" y="97.226798" style="stroke: #000000; stroke-width: 0.8"/>
      </g>
     </g>
     <g id="text_10">
      <!-- 26000 -->
      <g transform="translate(18.7875 101.026017) scale(0.1 -0.1)">
       <use xlink:href="#DejaVuSans-32"/>
       <use xlink:href="#DejaVuSans-36" x="63.623047"/>
       <use xlink:href="#DejaVuSans-30" x="127.246094"/>
       <use xlink:href="#DejaVuSans-30" x="190.869141"/>
       <use xlink:href="#DejaVuSans-30" x="254.492188"/>
      </g>
     </g>
    </g>
   </g>
   <g id="line2d_11">
    <path d="M 73.832727 65.721538 
L 77.079273 73.271998 
L 80.325818 89.805507 
L 83.572364 89.91119 
L 86.818909 101.137067 
L 90.065455 101.160552 
L 93.312 102.604886 
L 96.558545 119.244078 
L 99.805091 130.599123 
L 103.051636 143.727293 
L 106.298182 143.727293 
L 109.544727 145.206854 
L 112.791273 145.206854 
L 116.037818 149.187579 
L 119.284364 149.187579 
L 122.530909 149.4694 
L 125.777455 160.448683 
L 129.024 161.763849 
L 132.270545 167.9874 
L 135.517091 172.613964 
L 138.763636 180.281849 
L 142.010182 194.654729 
L 145.256727 195.183144 
L 148.503273 195.417995 
L 151.749818 200.009332 
L 154.996364 203.73172 
L 158.242909 217.611413 
L 161.489455 217.975432 
L 164.736 218.879609 
L 167.982545 225.866425 
L 171.229091 230.53996 
L 174.475636 230.53996 
L 177.722182 232.829757 
L 180.968727 232.829757 
L 184.215273 236.857452 
L 187.461818 236.857452 
L 190.708364 236.857452 
L 193.954909 241.566214 
L 197.201455 242.752211 
L 200.448 242.752211 
L 203.694545 244.36094 
L 206.941091 245.182919 
L 210.187636 245.899214 
L 213.434182 245.899214 
L 216.680727 246.051868 
L 219.927273 246.098838 
L 223.173818 249.962136 
L 226.420364 250.514036 
L 229.666909 250.514036 
L 232.913455 250.514036 
L 236.16 251.124649 
L 239.406545 251.124649 
L 242.653091 251.124649 
L 245.899636 259.673225 
L 249.146182 259.673225 
L 252.392727 259.673225 
L 255.639273 259.755423 
L 258.885818 260.154669 
L 262.132364 260.29558 
L 265.378909 260.29558 
L 268.625455 260.29558 
L 271.872 261.058846 
L 275.118545 262.327041 
L 278.365091 266.742239 
L 281.611636 266.742239 
L 284.858182 266.742239 
L 288.104727 266.742239 
L 291.351273 266.742239 
L 294.597818 266.742239 
L 297.844364 269.666134 
L 301.090909 269.666134 
L 304.337455 270.394172 
L 307.584 272.578286 
L 310.830545 278.085542 
L 314.077091 278.085542 
L 317.323636 278.085542 
L 320.570182 278.085542 
L 323.816727 284.508716 
L 327.063273 284.508716 
L 330.309818 284.508716 
L 333.556364 284.508716 
L 336.802909 284.66137 
L 340.049455 284.66137 
L 343.296 284.720082 
L 346.542545 287.479581 
L 349.789091 287.479581 
L 353.035636 287.479581 
L 356.282182 287.984511 
L 359.528727 292.564105 
L 362.775273 292.564105 
L 366.021818 292.564105 
L 369.268364 292.564105 
L 372.514909 292.716758 
L 375.761455 292.716758 
L 379.008 293.386084 
L 382.254545 293.386084 
L 385.501091 293.620935 
L 388.747636 293.996696 
L 391.994182 293.996696 
L 395.240727 293.996696 
L 398.487273 295.488 
" clip-path="url(#p23dabf53ed)" style="fill: none; stroke: #1f77b4; stroke-width: 1.5; stroke-linecap: square"/>
   </g>
   <g id="line2d_12">
    <path d="M 73.832727 67.635574 
L 77.079273 83.077026 
L 80.325818 88.549054 
L 83.572364 90.51006 
L 86.818909 101.33669 
L 90.065455 103.708685 
L 93.312 122.473279 
L 96.558545 125.15058 
L 99.805091 130.376015 
L 103.051636 130.376015 
L 106.298182 130.376015 
L 109.544727 140.204528 
L 112.791273 146.01709 
L 116.037818 146.01709 
L 119.284364 148.27166 
L 122.530909 149.128866 
L 125.777455 149.128866 
L 129.024 155.070596 
L 132.270545 162.210066 
L 135.517091 162.210066 
L 138.763636 162.210066 
L 142.010182 162.210066 
L 145.256727 162.210066 
L 148.503273 165.955939 
L 151.749818 165.955939 
L 154.996364 165.955939 
L 158.242909 166.8836 
L 161.489455 166.989283 
L 164.736 166.989283 
L 167.982545 167.764292 
L 171.229091 167.764292 
L 174.475636 174.363604 
L 177.722182 174.363604 
L 180.968727 175.03293 
L 184.215273 175.115127 
L 187.461818 178.262131 
L 190.708364 179.354188 
L 193.954909 182.395508 
L 197.201455 182.442478 
L 200.448 182.442478 
L 203.694545 182.442478 
L 206.941091 185.695164 
L 210.187636 186.528885 
L 213.434182 187.292151 
L 216.680727 192.153566 
L 219.927273 192.153566 
L 223.173818 193.492217 
L 226.420364 193.492217 
L 229.666909 196.557022 
L 232.913455 196.557022 
L 236.16 196.557022 
L 239.406545 196.557022 
L 242.653091 196.874071 
L 245.899636 196.874071 
L 249.146182 197.09718 
L 252.392727 197.09718 
L 255.639273 197.09718 
L 258.885818 197.202863 
L 262.132364 197.202863 
L 265.378909 197.825218 
L 268.625455 198.459315 
L 271.872 198.459315 
L 275.118545 198.459315 
L 278.365091 198.459315 
L 281.611636 200.197213 
L 284.858182 200.807825 
L 288.104727 203.743463 
L 291.351273 203.743463 
L 294.597818 203.743463 
L 297.844364 203.743463 
L 301.090909 203.743463 
L 304.337455 203.743463 
L 307.584 203.743463 
L 310.830545 203.743463 
L 314.077091 203.743463 
L 317.323636 203.743463 
L 320.570182 205.223024 
L 323.816727 205.223024 
L 327.063273 205.223024 
L 330.309818 205.223024 
L 333.556364 207.219257 
L 336.802909 207.219257 
L 340.049455 207.219257 
L 343.296 207.219257 
L 346.542545 209.532539 
L 349.789091 211.845822 
L 353.035636 212.033702 
L 356.282182 212.785226 
L 359.528727 212.785226 
L 362.775273 212.785226 
L 366.021818 212.785226 
L 369.268364 213.513264 
L 372.514909 215.251161 
L 375.761455 215.251161 
L 379.008 215.251161 
L 382.254545 215.251161 
L 385.501091 215.286389 
L 388.747636 218.797411 
L 391.994182 222.355403 
L 395.240727 222.355403 
L 398.487273 222.355403 
" clip-path="url(#p23dabf53ed)" style="fill: none; stroke: #ff7f0e; stroke-width: 1.5; stroke-linecap: square"/>
   </g>
   <g id="line2d_13">
    <path d="M 73.832727 65.075698 
L 77.079273 67.79997 
L 80.325818 74.328827 
L 83.572364 82.360731 
L 86.818909 86.470623 
L 90.065455 89.206637 
L 93.312 89.206637 
L 96.558545 89.206637 
L 99.805091 89.206637 
L 103.051636 100.221148 
L 106.298182 110.883383 
L 109.544727 118.022853 
L 112.791273 121.357737 
L 116.037818 121.357737 
L 119.284364 123.870642 
L 122.530909 138.431404 
L 125.777455 138.431404 
L 129.024 148.072037 
L 132.270545 148.072037 
L 135.517091 148.072037 
L 138.763636 161.90476 
L 142.010182 163.736597 
L 145.256727 163.736597 
L 148.503273 174.222694 
L 151.749818 174.222694 
L 154.996364 178.238646 
L 158.242909 189.123989 
L 161.489455 193.316079 
L 164.736 194.560789 
L 167.982545 201.911625 
L 171.229091 201.958595 
L 174.475636 205.446132 
L 177.722182 206.432506 
L 180.968727 206.432506 
L 184.215273 206.573417 
L 187.461818 207.148802 
L 190.708364 213.81857 
L 193.954909 213.81857 
L 197.201455 213.81857 
L 200.448 213.81857 
L 203.694545 219.278855 
L 206.941091 219.431508 
L 210.187636 220.018636 
L 213.434182 221.040238 
L 216.680727 231.009662 
L 219.927273 231.009662 
L 223.173818 231.209285 
L 226.420364 231.209285 
L 229.666909 234.82599 
L 232.913455 236.422977 
L 236.16 236.422977 
L 239.406545 240.403701 
L 242.653091 240.403701 
L 245.899636 240.403701 
L 249.146182 241.166967 
L 252.392727 248.823109 
L 255.639273 248.928792 
L 258.885818 253.860663 
L 262.132364 256.479251 
L 265.378909 260.178154 
L 268.625455 260.178154 
L 271.872 260.178154 
L 275.118545 263.93577 
L 278.365091 263.93577 
L 281.611636 264.522898 
L 284.858182 264.58161 
L 288.104727 264.58161 
L 291.351273 264.58161 
L 294.597818 264.58161 
L 297.844364 265.380104 
L 301.090909 265.380104 
L 304.337455 265.380104 
L 307.584 265.380104 
L 310.830545 268.597562 
L 314.077091 268.597562 
L 317.323636 269.572194 
L 320.570182 269.583936 
L 323.816727 271.298349 
L 327.063273 271.298349 
L 330.309818 271.298349 
L 333.556364 271.298349 
L 336.802909 271.298349 
L 340.049455 271.298349 
L 343.296 271.298349 
L 346.542545 271.298349 
L 349.789091 271.298349 
L 353.035636 271.298349 
L 356.282182 271.298349 
L 359.528727 271.298349 
L 362.775273 271.298349 
L 366.021818 271.298349 
L 369.268364 271.298349 
L 372.514909 271.298349 
L 375.761455 271.298349 
L 379.008 271.298349 
L 382.254545 271.298349 
L 385.501091 271.298349 
L 388.747636 271.298349 
L 391.994182 274.680203 
L 395.240727 274.680203 
L 398.487273 274.680203 
" clip-path="url(#p23dabf53ed)" style="fill: none; stroke: #2ca02c; stroke-width: 1.5; stroke-linecap: square"/>
   </g>
   <g id="line2d_14">
    <path d="M 73.832727 53.568 
L 77.079273 64.089324 
L 80.325818 77.687196 
L 83.572364 78.67357 
L 86.818909 78.685313 
L 90.065455 84.239539 
L 93.312 98.34234 
L 96.558545 98.34234 
L 99.805091 98.34234 
L 103.051636 99.140834 
L 106.298182 103.826111 
L 109.544727 103.826111 
L 112.791273 111.259145 
L 116.037818 111.3296 
L 119.284364 115.157671 
L 122.530909 119.032712 
L 125.777455 129.507066 
L 129.024 131.796863 
L 132.270545 134.791213 
L 135.517091 135.977211 
L 138.763636 137.867761 
L 142.010182 138.020414 
L 145.256727 139.711341 
L 148.503273 140.756428 
L 151.749818 147.637562 
L 154.996364 147.649305 
L 158.242909 155.011883 
L 161.489455 157.536531 
L 164.736 161.082781 
L 167.982545 161.599453 
L 171.229091 164.640774 
L 174.475636 164.640774 
L 177.722182 164.676001 
L 180.968727 167.083224 
L 184.215273 171.968124 
L 187.461818 180.657611 
L 190.708364 180.657611 
L 193.954909 180.657611 
L 197.201455 180.657611 
L 200.448 180.739809 
L 203.694545 180.962917 
L 206.941091 182.325053 
L 210.187636 190.955826 
L 213.434182 190.955826 
L 216.680727 194.431621 
L 219.927273 194.537304 
L 223.173818 195.864212 
L 226.420364 195.864212 
L 229.666909 195.864212 
L 232.913455 199.0347 
L 236.16 199.0347 
L 239.406545 199.0347 
L 242.653091 199.069928 
L 245.899636 203.919601 
L 249.146182 203.931343 
L 252.392727 207.536306 
L 255.639273 207.536306 
L 258.885818 207.536306 
L 262.132364 207.735929 
L 265.378909 208.52268 
L 268.625455 208.52268 
L 271.872 208.52268 
L 275.118545 208.52268 
L 278.365091 209.156778 
L 281.611636 212.045445 
L 284.858182 212.045445 
L 288.104727 212.045445 
L 291.351273 212.045445 
L 294.597818 212.045445 
L 297.844364 212.045445 
L 301.090909 212.045445 
L 304.337455 212.327266 
L 307.584 213.525006 
L 310.830545 213.525006 
L 314.077091 213.525006 
L 317.323636 213.525006 
L 320.570182 213.712887 
L 323.816727 215.380329 
L 327.063273 217.200424 
L 330.309818 217.200424 
L 333.556364 217.200424 
L 336.802909 217.200424 
L 340.049455 217.717096 
L 343.296 222.026612 
L 346.542545 222.026612 
L 349.789091 222.026612 
L 353.035636 222.026612 
L 356.282182 222.026612 
L 359.528727 222.026612 
L 362.775273 222.026612 
L 366.021818 222.026612 
L 369.268364 222.026612 
L 372.514909 222.026612 
L 375.761455 222.625482 
L 379.008 222.625482 
L 382.254545 222.625482 
L 385.501091 222.625482 
L 388.747636 222.625482 
L 391.994182 222.625482 
L 395.240727 222.625482 
L 398.487273 223.30655 
" clip-path="url(#p23dabf53ed)" style="fill: none; stroke: #d62728; stroke-width: 1.5; stroke-linecap: square"/>
   </g>
   <g id="patch_3">
    <path d="M 57.6 307.584 
L 57.6 41.472 
" style="fill: none; stroke: #000000; stroke-width: 0.8; stroke-linejoin: miter; stroke-linecap: square"/>
   </g>
   <g id="patch_4">
    <path d="M 414.72 307.584 
L 414.72 41.472 
" style="fill: none; stroke: #000000; stroke-width: 0.8; stroke-linejoin: miter; stroke-linecap: square"/>
   </g>
   <g id="patch_5">
    <path d="M 57.6 307.584 
L 414.72 307.584 
" style="fill: none; stroke: #000000; stroke-width: 0.8; stroke-linejoin: miter; stroke-linecap: square"/>
   </g>
   <g id="patch_6">
    <path d="M 57.6 41.472 
L 414.72 41.472 
" style="fill: none; stroke: #000000; stroke-width: 0.8; stroke-linejoin: miter; stroke-linecap: square"/>
   </g>
   <g id="legend_1">
    <g id="patch_7">
     <path d="M 239.737188 108.1845 
L 407.72 108.1845 
Q 409.72 108.1845 409.72 106.1845 
L 409.72 48.472 
Q 409.72 46.472 407.72 46.472 
L 239.737188 46.472 
Q 237.737188 46.472 237.737188 48.472 
L 237.737188 106.1845 
Q 237.737188 108.1845 239.737188 108.1845 
z
" style="fill: #ffffff; opacity: 0.8; stroke: #cccccc; stroke-linejoin: miter"/>
    </g>
    <g id="line2d_15">
     <path d="M 241.737188 54.570438 
L 251.737188 54.570438 
L 261.737188 54.570438 
" style="fill: none; stroke: #1f77b4; stroke-width: 1.5; stroke-linecap: square"/>
    </g>
    <g id="text_11">
     <!-- Best Replacement -->
     <g transform="translate(269.737188 58.070438) scale(0.1 -0.1)">
      <defs>
       <path id="DejaVuSans-42" d="M 1259 2228 
L 1259 519 
L 2272 519 
Q 2781 519 3026 730 
Q 3272 941 3272 1375 
Q 3272 1813 3026 2020 
Q 2781 2228 2272 2228 
L 1259 2228 
z
M 1259 4147 
L 1259 2741 
L 2194 2741 
Q 2656 2741 2882 2914 
Q 3109 3088 3109 3444 
Q 3109 3797 2882 3972 
Q 2656 4147 2194 4147 
L 1259 4147 
z
M 628 4666 
L 2241 4666 
Q 2963 4666 3353 4366 
Q 3744 4066 3744 3513 
Q 3744 3084 3544 2831 
Q 3344 2578 2956 2516 
Q 3422 2416 3680 2098 
Q 3938 1781 3938 1306 
Q 3938 681 3513 340 
Q 3088 0 2303 0 
L 628 0 
L 628 4666 
z
" transform="scale(0.015625)"/>
       <path id="DejaVuSans-65" d="M 3597 1894 
L 3597 1613 
L 953 1613 
Q 991 1019 1311 708 
Q 1631 397 2203 397 
Q 2534 397 2845 478 
Q 3156 559 3463 722 
L 3463 178 
Q 3153 47 2828 -22 
Q 2503 -91 2169 -91 
Q 1331 -91 842 396 
Q 353 884 353 1716 
Q 353 2575 817 3079 
Q 1281 3584 2069 3584 
Q 2775 3584 3186 3129 
Q 3597 2675 3597 1894 
z
M 3022 2063 
Q 3016 2534 2758 2815 
Q 2500 3097 2075 3097 
Q 1594 3097 1305 2825 
Q 1016 2553 972 2059 
L 3022 2063 
z
" transform="scale(0.015625)"/>
       <path id="DejaVuSans-73" d="M 2834 3397 
L 2834 2853 
Q 2591 2978 2328 3040 
Q 2066 3103 1784 3103 
Q 1356 3103 1142 2972 
Q 928 2841 928 2578 
Q 928 2378 1081 2264 
Q 1234 2150 1697 2047 
L 1894 2003 
Q 2506 1872 2764 1633 
Q 3022 1394 3022 966 
Q 3022 478 2636 193 
Q 2250 -91 1575 -91 
Q 1294 -91 989 -36 
Q 684 19 347 128 
L 347 722 
Q 666 556 975 473 
Q 1284 391 1588 391 
Q 1994 391 2212 530 
Q 2431 669 2431 922 
Q 2431 1156 2273 1281 
Q 2116 1406 1581 1522 
L 1381 1569 
Q 847 1681 609 1914 
Q 372 2147 372 2553 
Q 372 3047 722 3315 
Q 1072 3584 1716 3584 
Q 2034 3584 2315 3537 
Q 2597 3491 2834 3397 
z
" transform="scale(0.015625)"/>
       <path id="DejaVuSans-74" d="M 1172 4494 
L 1172 3500 
L 2356 3500 
L 2356 3053 
L 1172 3053 
L 1172 1153 
Q 1172 725 1289 603 
Q 1406 481 1766 481 
L 2356 481 
L 2356 0 
L 1766 0 
Q 1100 0 847 248 
Q 594 497 594 1153 
L 594 3053 
L 172 3053 
L 172 3500 
L 594 3500 
L 594 4494 
L 1172 4494 
z
" transform="scale(0.015625)"/>
       <path id="DejaVuSans-20" transform="scale(0.015625)"/>
       <path id="DejaVuSans-52" d="M 2841 2188 
Q 3044 2119 3236 1894 
Q 3428 1669 3622 1275 
L 4263 0 
L 3584 0 
L 2988 1197 
Q 2756 1666 2539 1819 
Q 2322 1972 1947 1972 
L 1259 1972 
L 1259 0 
L 628 0 
L 628 4666 
L 2053 4666 
Q 2853 4666 3247 4331 
Q 3641 3997 3641 3322 
Q 3641 2881 3436 2590 
Q 3231 2300 2841 2188 
z
M 1259 4147 
L 1259 2491 
L 2053 2491 
Q 2509 2491 2742 2702 
Q 2975 2913 2975 3322 
Q 2975 3731 2742 3939 
Q 2509 4147 2053 4147 
L 1259 4147 
z
" transform="scale(0.015625)"/>
       <path id="DejaVuSans-70" d="M 1159 525 
L 1159 -1331 
L 581 -1331 
L 581 3500 
L 1159 3500 
L 1159 2969 
Q 1341 3281 1617 3432 
Q 1894 3584 2278 3584 
Q 2916 3584 3314 3078 
Q 3713 2572 3713 1747 
Q 3713 922 3314 415 
Q 2916 -91 2278 -91 
Q 1894 -91 1617 61 
Q 1341 213 1159 525 
z
M 3116 1747 
Q 3116 2381 2855 2742 
Q 2594 3103 2138 3103 
Q 1681 3103 1420 2742 
Q 1159 2381 1159 1747 
Q 1159 1113 1420 752 
Q 1681 391 2138 391 
Q 2594 391 2855 752 
Q 3116 1113 3116 1747 
z
" transform="scale(0.015625)"/>
       <path id="DejaVuSans-6c" d="M 603 4863 
L 1178 4863 
L 1178 0 
L 603 0 
L 603 4863 
z
" transform="scale(0.015625)"/>
       <path id="DejaVuSans-61" d="M 2194 1759 
Q 1497 1759 1228 1600 
Q 959 1441 959 1056 
Q 959 750 1161 570 
Q 1363 391 1709 391 
Q 2188 391 2477 730 
Q 2766 1069 2766 1631 
L 2766 1759 
L 2194 1759 
z
M 3341 1997 
L 3341 0 
L 2766 0 
L 2766 531 
Q 2569 213 2275 61 
Q 1981 -91 1556 -91 
Q 1019 -91 701 211 
Q 384 513 384 1019 
Q 384 1609 779 1909 
Q 1175 2209 1959 2209 
L 2766 2209 
L 2766 2266 
Q 2766 2663 2505 2880 
Q 2244 3097 1772 3097 
Q 1472 3097 1187 3025 
Q 903 2953 641 2809 
L 641 3341 
Q 956 3463 1253 3523 
Q 1550 3584 1831 3584 
Q 2591 3584 2966 3190 
Q 3341 2797 3341 1997 
z
" transform="scale(0.015625)"/>
       <path id="DejaVuSans-63" d="M 3122 3366 
L 3122 2828 
Q 2878 2963 2633 3030 
Q 2388 3097 2138 3097 
Q 1578 3097 1268 2742 
Q 959 2388 959 1747 
Q 959 1106 1268 751 
Q 1578 397 2138 397 
Q 2388 397 2633 464 
Q 2878 531 3122 666 
L 3122 134 
Q 2881 22 2623 -34 
Q 2366 -91 2075 -91 
Q 1284 -91 818 406 
Q 353 903 353 1747 
Q 353 2603 823 3093 
Q 1294 3584 2113 3584 
Q 2378 3584 2631 3529 
Q 2884 3475 3122 3366 
z
" transform="scale(0.015625)"/>
       <path id="DejaVuSans-6d" d="M 3328 2828 
Q 3544 3216 3844 3400 
Q 4144 3584 4550 3584 
Q 5097 3584 5394 3201 
Q 5691 2819 5691 2113 
L 5691 0 
L 5113 0 
L 5113 2094 
Q 5113 2597 4934 2840 
Q 4756 3084 4391 3084 
Q 3944 3084 3684 2787 
Q 3425 2491 3425 1978 
L 3425 0 
L 2847 0 
L 2847 2094 
Q 2847 2600 2669 2842 
Q 2491 3084 2119 3084 
Q 1678 3084 1418 2786 
Q 1159 2488 1159 1978 
L 1159 0 
L 581 0 
L 581 3500 
L 1159 3500 
L 1159 2956 
Q 1356 3278 1631 3431 
Q 1906 3584 2284 3584 
Q 2666 3584 2933 3390 
Q 3200 3197 3328 2828 
z
" transform="scale(0.015625)"/>
       <path id="DejaVuSans-6e" d="M 3513 2113 
L 3513 0 
L 2938 0 
L 2938 2094 
Q 2938 2591 2744 2837 
Q 2550 3084 2163 3084 
Q 1697 3084 1428 2787 
Q 1159 2491 1159 1978 
L 1159 0 
L 581 0 
L 581 3500 
L 1159 3500 
L 1159 2956 
Q 1366 3272 1645 3428 
Q 1925 3584 2291 3584 
Q 2894 3584 3203 3211 
Q 3513 2838 3513 2113 
z
" transform="scale(0.015625)"/>
      </defs>
      <use xlink:href="#DejaVuSans-42"/>
      <use xlink:href="#DejaVuSans-65" x="68.603516"/>
      <use xlink:href="#DejaVuSans-73" x="130.126953"/>
      <use xlink:href="#DejaVuSans-74" x="182.226562"/>
      <use xlink:href="#DejaVuSans-20" x="221.435547"/>
      <use xlink:href="#DejaVuSans-52" x="253.222656"/>
      <use xlink:href="#DejaVuSans-65" x="318.205078"/>
      <use xlink:href="#DejaVuSans-70" x="379.728516"/>
      <use xlink:href="#DejaVuSans-6c" x="443.205078"/>
      <use xlink:href="#DejaVuSans-61" x="470.988281"/>
      <use xlink:href="#DejaVuSans-63" x="532.267578"/>
      <use xlink:href="#DejaVuSans-65" x="587.248047"/>
      <use xlink:href="#DejaVuSans-6d" x="648.771484"/>
      <use xlink:href="#DejaVuSans-65" x="746.183594"/>
      <use xlink:href="#DejaVuSans-6e" x="807.707031"/>
      <use xlink:href="#DejaVuSans-74" x="871.085938"/>
     </g>
    </g>
    <g id="line2d_16">
     <path d="M 241.737188 69.248563 
L 251.737188 69.248563 
L 261.737188 69.248563 
" style="fill: none; stroke: #ff7f0e; stroke-width: 1.5; stroke-linecap: square"/>
    </g>
    <g id="text_12">
     <!-- Elite Replacement [f=0.1] -->
     <g transform="translate(269.737188 72.748563) scale(0.1 -0.1)">
      <defs>
       <path id="DejaVuSans-45" d="M 628 4666 
L 3578 4666 
L 3578 4134 
L 1259 4134 
L 1259 2753 
L 3481 2753 
L 3481 2222 
L 1259 2222 
L 1259 531 
L 3634 531 
L 3634 0 
L 628 0 
L 628 4666 
z
" transform="scale(0.015625)"/>
       <path id="DejaVuSans-69" d="M 603 3500 
L 1178 3500 
L 1178 0 
L 603 0 
L 603 3500 
z
M 603 4863 
L 1178 4863 
L 1178 4134 
L 603 4134 
L 603 4863 
z
" transform="scale(0.015625)"/>
       <path id="DejaVuSans-5b" d="M 550 4863 
L 1875 4863 
L 1875 4416 
L 1125 4416 
L 1125 -397 
L 1875 -397 
L 1875 -844 
L 550 -844 
L 550 4863 
z
" transform="scale(0.015625)"/>
       <path id="DejaVuSans-66" d="M 2375 4863 
L 2375 4384 
L 1825 4384 
Q 1516 4384 1395 4259 
Q 1275 4134 1275 3809 
L 1275 3500 
L 2222 3500 
L 2222 3053 
L 1275 3053 
L 1275 0 
L 697 0 
L 697 3053 
L 147 3053 
L 147 3500 
L 697 3500 
L 697 3744 
Q 697 4328 969 4595 
Q 1241 4863 1831 4863 
L 2375 4863 
z
" transform="scale(0.015625)"/>
       <path id="DejaVuSans-3d" d="M 678 2906 
L 4684 2906 
L 4684 2381 
L 678 2381 
L 678 2906 
z
M 678 1631 
L 4684 1631 
L 4684 1100 
L 678 1100 
L 678 1631 
z
" transform="scale(0.015625)"/>
       <path id="DejaVuSans-2e" d="M 684 794 
L 1344 794 
L 1344 0 
L 684 0 
L 684 794 
z
" transform="scale(0.015625)"/>
       <path id="DejaVuSans-5d" d="M 1947 4863 
L 1947 -844 
L 622 -844 
L 622 -397 
L 1369 -397 
L 1369 4416 
L 622 4416 
L 622 4863 
L 1947 4863 
z
" transform="scale(0.015625)"/>
      </defs>
      <use xlink:href="#DejaVuSans-45"/>
      <use xlink:href="#DejaVuSans-6c" x="63.183594"/>
      <use xlink:href="#DejaVuSans-69" x="90.966797"/>
      <use xlink:href="#DejaVuSans-74" x="118.75"/>
      <use xlink:href="#DejaVuSans-65" x="157.958984"/>
      <use xlink:href="#DejaVuSans-20" x="219.482422"/>
      <use xlink:href="#DejaVuSans-52" x="251.269531"/>
      <use xlink:href="#DejaVuSans-65" x="316.251953"/>
      <use xlink:href="#DejaVuSans-70" x="377.775391"/>
      <use xlink:href="#DejaVuSans-6c" x="441.251953"/>
      <use xlink:href="#DejaVuSans-61" x="469.035156"/>
      <use xlink:href="#DejaVuSans-63" x="530.314453"/>
      <use xlink:href="#DejaVuSans-65" x="585.294922"/>
      <use xlink:href="#DejaVuSans-6d" x="646.818359"/>
      <use xlink:href="#DejaVuSans-65" x="744.230469"/>
      <use xlink:href="#DejaVuSans-6e" x="805.753906"/>
      <use xlink:href="#DejaVuSans-74" x="869.132812"/>
      <use xlink:href="#DejaVuSans-20" x="908.341797"/>
      <use xlink:href="#DejaVuSans-5b" x="940.128906"/>
      <use xlink:href="#DejaVuSans-66" x="979.142578"/>
      <use xlink:href="#DejaVuSans-3d" x="1014.347656"/>
      <use xlink:href="#DejaVuSans-30" x="1098.136719"/>
      <use xlink:href="#DejaVuSans-2e" x="1161.759766"/>
      <use xlink:href="#DejaVuSans-31" x="1193.546875"/>
      <use xlink:href="#DejaVuSans-5d" x="1257.169922"/>
     </g>
    </g>
    <g id="line2d_17">
     <path d="M 241.737188 83.926688 
L 251.737188 83.926688 
L 261.737188 83.926688 
" style="fill: none; stroke: #2ca02c; stroke-width: 1.5; stroke-linecap: square"/>
    </g>
    <g id="text_13">
     <!-- Elite Replacement [f=0.25] -->
     <g transform="translate(269.737188 87.426688) scale(0.1 -0.1)">
      <use xlink:href="#DejaVuSans-45"/>
      <use xlink:href="#DejaVuSans-6c" x="63.183594"/>
      <use xlink:href="#DejaVuSans-69" x="90.966797"/>
      <use xlink:href="#DejaVuSans-74" x="118.75"/>
      <use xlink:href="#DejaVuSans-65" x="157.958984"/>
      <use xlink:href="#DejaVuSans-20" x="219.482422"/>
      <use xlink:href="#DejaVuSans-52" x="251.269531"/>
      <use xlink:href="#DejaVuSans-65" x="316.251953"/>
      <use xlink:href="#DejaVuSans-70" x="377.775391"/>
      <use xlink:href="#DejaVuSans-6c" x="441.251953"/>
      <use xlink:href="#DejaVuSans-61" x="469.035156"/>
      <use xlink:href="#DejaVuSans-63" x="530.314453"/>
      <use xlink:href="#DejaVuSans-65" x="585.294922"/>
      <use xlink:href="#DejaVuSans-6d" x="646.818359"/>
      <use xlink:href="#DejaVuSans-65" x="744.230469"/>
      <use xlink:href="#DejaVuSans-6e" x="805.753906"/>
      <use xlink:href="#DejaVuSans-74" x="869.132812"/>
      <use xlink:href="#DejaVuSans-20" x="908.341797"/>
      <use xlink:href="#DejaVuSans-5b" x="940.128906"/>
      <use xlink:href="#DejaVuSans-66" x="979.142578"/>
      <use xlink:href="#DejaVuSans-3d" x="1014.347656"/>
      <use xlink:href="#DejaVuSans-30" x="1098.136719"/>
      <use xlink:href="#DejaVuSans-2e" x="1161.759766"/>
      <use xlink:href="#DejaVuSans-32" x="1193.546875"/>
      <use xlink:href="#DejaVuSans-35" x="1257.169922"/>
      <use xlink:href="#DejaVuSans-5d" x="1320.792969"/>
     </g>
    </g>
    <g id="line2d_18">
     <path d="M 241.737188 98.604813 
L 251.737188 98.604813 
L 261.737188 98.604813 
" style="fill: none; stroke: #d62728; stroke-width: 1.5; stroke-linecap: square"/>
    </g>
    <g id="text_14">
     <!-- Elite Replacement [f=0.5] -->
     <g transform="translate(269.737188 102.104813) scale(0.1 -0.1)">
      <use xlink:href="#DejaVuSans-45"/>
      <use xlink:href="#DejaVuSans-6c" x="63.183594"/>
      <use xlink:href="#DejaVuSans-69" x="90.966797"/>
      <use xlink:href="#DejaVuSans-74" x="118.75"/>
      <use xlink:href="#DejaVuSans-65" x="157.958984"/>
      <use xlink:href="#DejaVuSans-20" x="219.482422"/>
      <use xlink:href="#DejaVuSans-52" x="251.269531"/>
      <use xlink:href="#DejaVuSans-65" x="316.251953"/>
      <use xlink:href="#DejaVuSans-70" x="377.775391"/>
      <use xlink:href="#DejaVuSans-6c" x="441.251953"/>
      <use xlink:href="#DejaVuSans-61" x="469.035156"/>
      <use xlink:href="#DejaVuSans-63" x="530.314453"/>
      <use xlink:href="#DejaVuSans-65" x="585.294922"/>
      <use xlink:href="#DejaVuSans-6d" x="646.818359"/>
      <use xlink:href="#DejaVuSans-65" x="744.230469"/>
      <use xlink:href="#DejaVuSans-6e" x="805.753906"/>
      <use xlink:href="#DejaVuSans-74" x="869.132812"/>
      <use xlink:href="#DejaVuSans-20" x="908.341797"/>
      <use xlink:href="#DejaVuSans-5b" x="940.128906"/>
      <use xlink:href="#DejaVuSans-66" x="979.142578"/>
      <use xlink:href="#DejaVuSans-3d" x="1014.347656"/>
      <use xlink:href="#DejaVuSans-30" x="1098.136719"/>
      <use xlink:href="#DejaVuSans-2e" x="1161.759766"/>
      <use xlink:href="#DejaVuSans-35" x="1193.546875"/>
      <use xlink:href="#DejaVuSans-5d" x="1257.169922"/>
     </g>
    </g>
   </g>
  </g>
 </g>
 <defs>
  <clipPath id="p23dabf53ed">
   <rect x="57.6" y="41.472" width="357.12" height="266.112"/>
  </clipPath>
 </defs>
</svg>
