<?xml version="1.0" encoding="utf-8" standalone="no"?>
<!DOCTYPE svg PUBLIC "-//W3C//DTD SVG 1.1//EN"
  "http://www.w3.org/Graphics/SVG/1.1/DTD/svg11.dtd">
<svg xmlns:xlink="http://www.w3.org/1999/xlink" width="460.8pt" height="345.6pt" viewBox="0 0 460.8 345.6" xmlns="http://www.w3.org/2000/svg" version="1.1">
 <metadata>
  <rdf:RDF xmlns:dc="http://purl.org/dc/elements/1.1/" xmlns:cc="http://creativecommons.org/ns#" xmlns:rdf="http://www.w3.org/1999/02/22-rdf-syntax-ns#">
   <cc:Work>
    <dc:type rdf:resource="http://purl.org/dc/dcmitype/StillImage"/>
    <dc:date>2024-01-12T14:12:34.805509</dc:date>
    <dc:format>image/svg+xml</dc:format>
    <dc:creator>
     <cc:Agent>
      <dc:title>Matplotlib v3.8.2, https://matplotlib.org/</dc:title>
     </cc:Agent>
    </dc:creator>
   </cc:Work>
  </rdf:RDF>
 </metadata>
 <defs>
  <style type="text/css">*{stroke-linejoin: round; stroke-linecap: butt}</style>
 </defs>
 <g id="figure_1">
  <g id="patch_1">
   <path d="M 0 345.6 
L 460.8 345.6 
L 460.8 0 
L 0 0 
z
" style="fill: #ffffff"/>
  </g>
  <g id="axes_1">
   <g id="patch_2">
    <path d="M 57.6 307.584 
L 414.72 307.584 
L 414.72 41.472 
L 57.6 41.472 
z
" style="fill: #ffffff"/>
   </g>
   <g id="matplotlib.axis_1">
    <g id="xtick_1">
     <g id="line2d_1">
      <defs>
       <path id="mb2f922c6e4" d="M 0 0 
L 0 3.5 
" style="stroke: #000000; stroke-width: 0.8"/>
      </defs>
      <g>
       <use xlink:href="#mb2f922c6e4" x="73.832727" y="307.584" style="stroke: #000000; stroke-width: 0.8"/>
      </g>
     </g>
     <g id="text_1">
      <!-- 0 -->
      <g transform="translate(70.651477 322.182437) scale(0.1 -0.1)">
       <defs>
        <path id="DejaVuSans-30" d="M 2034 4250 
Q 1547 4250 1301 3770 
Q 1056 3291 1056 2328 
Q 1056 1369 1301 889 
Q 1547 409 2034 409 
Q 2525 409 2770 889 
Q 3016 1369 3016 2328 
Q 3016 3291 2770 3770 
Q 2525 4250 2034 4250 
z
M 2034 4750 
Q 2819 4750 3233 4129 
Q 3647 3509 3647 2328 
Q 3647 1150 3233 529 
Q 2819 -91 2034 -91 
Q 1250 -91 836 529 
Q 422 1150 422 2328 
Q 422 3509 836 4129 
Q 1250 4750 2034 4750 
z
" transform="scale(0.015625)"/>
       </defs>
       <use xlink:href="#DejaVuSans-30"/>
      </g>
     </g>
    </g>
    <g id="xtick_2">
     <g id="line2d_2">
      <g>
       <use xlink:href="#mb2f922c6e4" x="138.763636" y="307.584" style="stroke: #000000; stroke-width: 0.8"/>
      </g>
     </g>
     <g id="text_2">
      <!-- 20 -->
      <g transform="translate(132.401136 322.182437) scale(0.1 -0.1)">
       <defs>
        <path id="DejaVuSans-32" d="M 1228 531 
L 3431 531 
L 3431 0 
L 469 0 
L 469 531 
Q 828 903 1448 1529 
Q 2069 2156 2228 2338 
Q 2531 2678 2651 2914 
Q 2772 3150 2772 3378 
Q 2772 3750 2511 3984 
Q 2250 4219 1831 4219 
Q 1534 4219 1204 4116 
Q 875 4013 500 3803 
L 500 4441 
Q 881 4594 1212 4672 
Q 1544 4750 1819 4750 
Q 2544 4750 2975 4387 
Q 3406 4025 3406 3419 
Q 3406 3131 3298 2873 
Q 3191 2616 2906 2266 
Q 2828 2175 2409 1742 
Q 1991 1309 1228 531 
z
" transform="scale(0.015625)"/>
       </defs>
       <use xlink:href="#DejaVuSans-32"/>
       <use xlink:href="#DejaVuSans-30" x="63.623047"/>
      </g>
     </g>
    </g>
    <g id="xtick_3">
     <g id="line2d_3">
      <g>
       <use xlink:href="#mb2f922c6e4" x="203.694545" y="307.584" style="stroke: #000000; stroke-width: 0.8"/>
      </g>
     </g>
     <g id="text_3">
      <!-- 40 -->
      <g transform="translate(197.332045 322.182437) scale(0.1 -0.1)">
       <defs>
        <path id="DejaVuSans-34" d="M 2419 4116 
L 825 1625 
L 2419 1625 
L 2419 4116 
z
M 2253 4666 
L 3047 4666 
L 3047 1625 
L 3713 1625 
L 3713 1100 
L 3047 1100 
L 3047 0 
L 2419 0 
L 2419 1100 
L 313 1100 
L 313 1709 
L 2253 4666 
z
" transform="scale(0.015625)"/>
       </defs>
       <use xlink:href="#DejaVuSans-34"/>
       <use xlink:href="#DejaVuSans-30" x="63.623047"/>
      </g>
     </g>
    </g>
    <g id="xtick_4">
     <g id="line2d_4">
      <g>
       <use xlink:href="#mb2f922c6e4" x="268.625455" y="307.584" style="stroke: #000000; stroke-width: 0.8"/>
      </g>
     </g>
     <g id="text_4">
      <!-- 60 -->
      <g transform="translate(262.262955 322.182437) scale(0.1 -0.1)">
       <defs>
        <path id="DejaVuSans-36" d="M 2113 2584 
Q 1688 2584 1439 2293 
Q 1191 2003 1191 1497 
Q 1191 994 1439 701 
Q 1688 409 2113 409 
Q 2538 409 2786 701 
Q 3034 994 3034 1497 
Q 3034 2003 2786 2293 
Q 2538 2584 2113 2584 
z
M 3366 4563 
L 3366 3988 
Q 3128 4100 2886 4159 
Q 2644 4219 2406 4219 
Q 1781 4219 1451 3797 
Q 1122 3375 1075 2522 
Q 1259 2794 1537 2939 
Q 1816 3084 2150 3084 
Q 2853 3084 3261 2657 
Q 3669 2231 3669 1497 
Q 3669 778 3244 343 
Q 2819 -91 2113 -91 
Q 1303 -91 875 529 
Q 447 1150 447 2328 
Q 447 3434 972 4092 
Q 1497 4750 2381 4750 
Q 2619 4750 2861 4703 
Q 3103 4656 3366 4563 
z
" transform="scale(0.015625)"/>
       </defs>
       <use xlink:href="#DejaVuSans-36"/>
       <use xlink:href="#DejaVuSans-30" x="63.623047"/>
      </g>
     </g>
    </g>
    <g id="xtick_5">
     <g id="line2d_5">
      <g>
       <use xlink:href="#mb2f922c6e4" x="333.556364" y="307.584" style="stroke: #000000; stroke-width: 0.8"/>
      </g>
     </g>
     <g id="text_5">
      <!-- 80 -->
      <g transform="translate(327.193864 322.182437) scale(0.1 -0.1)">
       <defs>
        <path id="DejaVuSans-38" d="M 2034 2216 
Q 1584 2216 1326 1975 
Q 1069 1734 1069 1313 
Q 1069 891 1326 650 
Q 1584 409 2034 409 
Q 2484 409 2743 651 
Q 3003 894 3003 1313 
Q 3003 1734 2745 1975 
Q 2488 2216 2034 2216 
z
M 1403 2484 
Q 997 2584 770 2862 
Q 544 3141 544 3541 
Q 544 4100 942 4425 
Q 1341 4750 2034 4750 
Q 2731 4750 3128 4425 
Q 3525 4100 3525 3541 
Q 3525 3141 3298 2862 
Q 3072 2584 2669 2484 
Q 3125 2378 3379 2068 
Q 3634 1759 3634 1313 
Q 3634 634 3220 271 
Q 2806 -91 2034 -91 
Q 1263 -91 848 271 
Q 434 634 434 1313 
Q 434 1759 690 2068 
Q 947 2378 1403 2484 
z
M 1172 3481 
Q 1172 3119 1398 2916 
Q 1625 2713 2034 2713 
Q 2441 2713 2670 2916 
Q 2900 3119 2900 3481 
Q 2900 3844 2670 4047 
Q 2441 4250 2034 4250 
Q 1625 4250 1398 4047 
Q 1172 3844 1172 3481 
z
" transform="scale(0.015625)"/>
       </defs>
       <use xlink:href="#DejaVuSans-38"/>
       <use xlink:href="#DejaVuSans-30" x="63.623047"/>
      </g>
     </g>
    </g>
    <g id="xtick_6">
     <g id="line2d_6">
      <g>
       <use xlink:href="#mb2f922c6e4" x="398.487273" y="307.584" style="stroke: #000000; stroke-width: 0.8"/>
      </g>
     </g>
     <g id="text_6">
      <!-- 100 -->
      <g transform="translate(388.943523 322.182437) scale(0.1 -0.1)">
       <defs>
        <path id="DejaVuSans-31" d="M 794 531 
L 1825 531 
L 1825 4091 
L 703 3866 
L 703 4441 
L 1819 4666 
L 2450 4666 
L 2450 531 
L 3481 531 
L 3481 0 
L 794 0 
L 794 531 
z
" transform="scale(0.015625)"/>
       </defs>
       <use xlink:href="#DejaVuSans-31"/>
       <use xlink:href="#DejaVuSans-30" x="63.623047"/>
       <use xlink:href="#DejaVuSans-30" x="127.246094"/>
      </g>
     </g>
    </g>
   </g>
   <g id="matplotlib.axis_2">
    <g id="ytick_1">
     <g id="line2d_7">
      <defs>
       <path id="mb5126febef" d="M 0 0 
L -3.5 0 
" style="stroke: #000000; stroke-width: 0.8"/>
      </defs>
      <g>
       <use xlink:href="#mb5126febef" x="57.6" y="277.297743" style="stroke: #000000; stroke-width: 0.8"/>
      </g>
     </g>
     <g id="text_7">
      <!-- 7250 -->
      <g transform="translate(25.15 281.096961) scale(0.1 -0.1)">
       <defs>
        <path id="DejaVuSans-37" d="M 525 4666 
L 3525 4666 
L 3525 4397 
L 1831 0 
L 1172 0 
L 2766 4134 
L 525 4134 
L 525 4666 
z
" transform="scale(0.015625)"/>
        <path id="DejaVuSans-35" d="M 691 4666 
L 3169 4666 
L 3169 4134 
L 1269 4134 
L 1269 2991 
Q 1406 3038 1543 3061 
Q 1681 3084 1819 3084 
Q 2600 3084 3056 2656 
Q 3513 2228 3513 1497 
Q 3513 744 3044 326 
Q 2575 -91 1722 -91 
Q 1428 -91 1123 -41 
Q 819 9 494 109 
L 494 744 
Q 775 591 1075 516 
Q 1375 441 1709 441 
Q 2250 441 2565 725 
Q 2881 1009 2881 1497 
Q 2881 1984 2565 2268 
Q 2250 2553 1709 2553 
Q 1456 2553 1204 2497 
Q 953 2441 691 2322 
L 691 4666 
z
" transform="scale(0.015625)"/>
       </defs>
       <use xlink:href="#DejaVuSans-37"/>
       <use xlink:href="#DejaVuSans-32" x="63.623047"/>
       <use xlink:href="#DejaVuSans-35" x="127.246094"/>
       <use xlink:href="#DejaVuSans-30" x="190.869141"/>
      </g>
     </g>
    </g>
    <g id="ytick_2">
     <g id="line2d_8">
      <g>
       <use xlink:href="#mb5126febef" x="57.6" y="244.722067" style="stroke: #000000; stroke-width: 0.8"/>
      </g>
     </g>
     <g id="text_8">
      <!-- 7500 -->
      <g transform="translate(25.15 248.521285) scale(0.1 -0.1)">
       <use xlink:href="#DejaVuSans-37"/>
       <use xlink:href="#DejaVuSans-35" x="63.623047"/>
       <use xlink:href="#DejaVuSans-30" x="127.246094"/>
       <use xlink:href="#DejaVuSans-30" x="190.869141"/>
      </g>
     </g>
    </g>
    <g id="ytick_3">
     <g id="line2d_9">
      <g>
       <use xlink:href="#mb5126febef" x="57.6" y="212.146391" style="stroke: #000000; stroke-width: 0.8"/>
      </g>
     </g>
     <g id="text_9">
      <!-- 7750 -->
      <g transform="translate(25.15 215.945609) scale(0.1 -0.1)">
       <use xlink:href="#DejaVuSans-37"/>
       <use xlink:href="#DejaVuSans-37" x="63.623047"/>
       <use xlink:href="#DejaVuSans-35" x="127.246094"/>
       <use xlink:href="#DejaVuSans-30" x="190.869141"/>
      </g>
     </g>
    </g>
    <g id="ytick_4">
     <g id="line2d_10">
      <g>
       <use xlink:href="#mb5126febef" x="57.6" y="179.570715" style="stroke: #000000; stroke-width: 0.8"/>
      </g>
     </g>
     <g id="text_10">
      <!-- 8000 -->
      <g transform="translate(25.15 183.369933) scale(0.1 -0.1)">
       <use xlink:href="#DejaVuSans-38"/>
       <use xlink:href="#DejaVuSans-30" x="63.623047"/>
       <use xlink:href="#DejaVuSans-30" x="127.246094"/>
       <use xlink:href="#DejaVuSans-30" x="190.869141"/>
      </g>
     </g>
    </g>
    <g id="ytick_5">
     <g id="line2d_11">
      <g>
       <use xlink:href="#mb5126febef" x="57.6" y="146.995039" style="stroke: #000000; stroke-width: 0.8"/>
      </g>
     </g>
     <g id="text_11">
      <!-- 8250 -->
      <g transform="translate(25.15 150.794257) scale(0.1 -0.1)">
       <use xlink:href="#DejaVuSans-38"/>
       <use xlink:href="#DejaVuSans-32" x="63.623047"/>
       <use xlink:href="#DejaVuSans-35" x="127.246094"/>
       <use xlink:href="#DejaVuSans-30" x="190.869141"/>
      </g>
     </g>
    </g>
    <g id="ytick_6">
     <g id="line2d_12">
      <g>
       <use xlink:href="#mb5126febef" x="57.6" y="114.419363" style="stroke: #000000; stroke-width: 0.8"/>
      </g>
     </g>
     <g id="text_12">
      <!-- 8500 -->
      <g transform="translate(25.15 118.218581) scale(0.1 -0.1)">
       <use xlink:href="#DejaVuSans-38"/>
       <use xlink:href="#DejaVuSans-35" x="63.623047"/>
       <use xlink:href="#DejaVuSans-30" x="127.246094"/>
       <use xlink:href="#DejaVuSans-30" x="190.869141"/>
      </g>
     </g>
    </g>
    <g id="ytick_7">
     <g id="line2d_13">
      <g>
       <use xlink:href="#mb5126febef" x="57.6" y="81.843687" style="stroke: #000000; stroke-width: 0.8"/>
      </g>
     </g>
     <g id="text_13">
      <!-- 8750 -->
      <g transform="translate(25.15 85.642905) scale(0.1 -0.1)">
       <use xlink:href="#DejaVuSans-38"/>
       <use xlink:href="#DejaVuSans-37" x="63.623047"/>
       <use xlink:href="#DejaVuSans-35" x="127.246094"/>
       <use xlink:href="#DejaVuSans-30" x="190.869141"/>
      </g>
     </g>
    </g>
    <g id="ytick_8">
     <g id="line2d_14">
      <g>
       <use xlink:href="#mb5126febef" x="57.6" y="49.268011" style="stroke: #000000; stroke-width: 0.8"/>
      </g>
     </g>
     <g id="text_14">
      <!-- 9000 -->
      <g transform="translate(25.15 53.06723) scale(0.1 -0.1)">
       <defs>
        <path id="DejaVuSans-39" d="M 703 97 
L 703 672 
Q 941 559 1184 500 
Q 1428 441 1663 441 
Q 2288 441 2617 861 
Q 2947 1281 2994 2138 
Q 2813 1869 2534 1725 
Q 2256 1581 1919 1581 
Q 1219 1581 811 2004 
Q 403 2428 403 3163 
Q 403 3881 828 4315 
Q 1253 4750 1959 4750 
Q 2769 4750 3195 4129 
Q 3622 3509 3622 2328 
Q 3622 1225 3098 567 
Q 2575 -91 1691 -91 
Q 1453 -91 1209 -44 
Q 966 3 703 97 
z
M 1959 2075 
Q 2384 2075 2632 2365 
Q 2881 2656 2881 3163 
Q 2881 3666 2632 3958 
Q 2384 4250 1959 4250 
Q 1534 4250 1286 3958 
Q 1038 3666 1038 3163 
Q 1038 2656 1286 2365 
Q 1534 2075 1959 2075 
z
" transform="scale(0.015625)"/>
       </defs>
       <use xlink:href="#DejaVuSans-39"/>
       <use xlink:href="#DejaVuSans-30" x="63.623047"/>
       <use xlink:href="#DejaVuSans-30" x="127.246094"/>
       <use xlink:href="#DejaVuSans-30" x="190.869141"/>
      </g>
     </g>
    </g>
   </g>
   <g id="line2d_15">
    <path d="M 73.832727 71.706136 
L 77.079273 111.135735 
L 80.325818 116.21754 
L 83.572364 123.644794 
L 86.818909 140.505964 
L 90.065455 156.350773 
L 93.312 156.350773 
L 96.558545 161.198033 
L 99.805091 163.699845 
L 103.051636 167.582866 
L 106.298182 175.635573 
L 109.544727 198.907636 
L 112.791273 199.897936 
L 116.037818 201.383387 
L 119.284364 201.383387 
L 122.530909 202.634293 
L 125.777455 202.94702 
L 129.024 202.94702 
L 132.270545 202.94702 
L 135.517091 205.631255 
L 138.763636 205.631255 
L 142.010182 208.237309 
L 145.256727 211.182151 
L 148.503273 216.811227 
L 151.749818 219.625766 
L 154.996364 220.381521 
L 158.242909 220.381521 
L 161.489455 225.802114 
L 164.736 244.357219 
L 167.982545 244.357219 
L 171.229091 244.357219 
L 174.475636 244.357219 
L 177.722182 249.20448 
L 180.968727 250.064477 
L 184.215273 250.064477 
L 187.461818 250.064477 
L 190.708364 250.064477 
L 193.954909 250.064477 
L 197.201455 250.064477 
L 200.448 250.064477 
L 203.694545 250.064477 
L 206.941091 250.064477 
L 210.187636 250.064477 
L 213.434182 250.064477 
L 216.680727 250.064477 
L 219.927273 250.064477 
L 223.173818 250.064477 
L 226.420364 250.064477 
L 229.666909 253.634772 
L 232.913455 253.634772 
L 236.16 253.634772 
L 239.406545 253.634772 
L 242.653091 253.634772 
L 245.899636 253.634772 
L 249.146182 253.634772 
L 252.392727 253.634772 
L 255.639273 253.634772 
L 258.885818 253.634772 
L 262.132364 253.634772 
L 265.378909 253.634772 
L 268.625455 253.634772 
L 271.872 253.634772 
L 275.118545 253.634772 
L 278.365091 253.634772 
L 281.611636 253.634772 
L 284.858182 253.634772 
L 288.104727 253.634772 
L 291.351273 253.634772 
L 294.597818 253.634772 
L 297.844364 253.634772 
L 301.090909 253.634772 
L 304.337455 253.634772 
L 307.584 253.634772 
L 310.830545 256.762036 
L 314.077091 256.762036 
L 317.323636 256.762036 
L 320.570182 256.762036 
L 323.816727 256.762036 
L 327.063273 256.762036 
L 330.309818 256.762036 
L 333.556364 256.762036 
L 336.802909 256.762036 
L 340.049455 256.762036 
L 343.296 256.762036 
L 346.542545 256.762036 
L 349.789091 256.762036 
L 353.035636 256.762036 
L 356.282182 256.762036 
L 359.528727 256.762036 
L 362.775273 256.762036 
L 366.021818 256.762036 
L 369.268364 256.762036 
L 372.514909 256.762036 
L 375.761455 256.762036 
L 379.008 259.758999 
L 382.254545 259.758999 
L 385.501091 259.758999 
L 388.747636 259.758999 
L 391.994182 259.758999 
L 395.240727 259.758999 
L 398.487273 259.758999 
" clip-path="url(#pc35d4ec2e2)" style="fill: none; stroke: #1f77b4; stroke-width: 1.5; stroke-linecap: square"/>
   </g>
   <g id="line2d_16">
    <path d="M 73.832727 68.552811 
L 77.079273 98.991523 
L 80.325818 98.991523 
L 83.572364 101.75394 
L 86.818909 127.76236 
L 90.065455 137.873849 
L 93.312 142.929594 
L 96.558545 148.793216 
L 99.805091 149.027761 
L 103.051636 165.914991 
L 106.298182 165.914991 
L 109.544727 165.914991 
L 112.791273 168.75559 
L 116.037818 168.75559 
L 119.284364 168.75559 
L 122.530909 172.221642 
L 125.777455 176.912539 
L 129.024 176.912539 
L 132.270545 178.319809 
L 135.517091 191.87129 
L 138.763636 191.87129 
L 142.010182 197.68279 
L 145.256727 197.68279 
L 148.503273 199.272483 
L 151.749818 199.272483 
L 154.996364 199.272483 
L 158.242909 199.272483 
L 161.489455 207.325191 
L 164.736 207.325191 
L 167.982545 207.325191 
L 171.229091 207.325191 
L 174.475636 207.325191 
L 177.722182 210.478516 
L 180.968727 210.478516 
L 184.215273 210.895485 
L 187.461818 218.296678 
L 190.708364 218.296678 
L 193.954909 218.296678 
L 197.201455 227.913018 
L 200.448 230.258466 
L 203.694545 230.258466 
L 206.941091 230.258466 
L 210.187636 230.258466 
L 213.434182 230.258466 
L 216.680727 230.258466 
L 219.927273 230.258466 
L 223.173818 230.258466 
L 226.420364 230.258466 
L 229.666909 230.258466 
L 232.913455 230.258466 
L 236.16 230.258466 
L 239.406545 230.258466 
L 242.653091 230.962101 
L 245.899636 230.962101 
L 249.146182 230.962101 
L 252.392727 235.314211 
L 255.639273 235.314211 
L 258.885818 235.314211 
L 262.132364 235.314211 
L 265.378909 235.314211 
L 268.625455 235.314211 
L 271.872 235.314211 
L 275.118545 235.314211 
L 278.365091 235.314211 
L 281.611636 235.314211 
L 284.858182 236.096028 
L 288.104727 236.096028 
L 291.351273 242.819647 
L 294.597818 242.819647 
L 297.844364 242.819647 
L 301.090909 242.819647 
L 304.337455 242.819647 
L 307.584 242.819647 
L 310.830545 242.819647 
L 314.077091 242.819647 
L 317.323636 242.819647 
L 320.570182 242.819647 
L 323.816727 242.819647 
L 327.063273 242.819647 
L 330.309818 242.819647 
L 333.556364 247.745089 
L 336.802909 247.745089 
L 340.049455 247.745089 
L 343.296 247.745089 
L 346.542545 249.074177 
L 349.789091 249.074177 
L 353.035636 249.074177 
L 356.282182 249.074177 
L 359.528727 249.074177 
L 362.775273 253.400227 
L 366.021818 253.400227 
L 369.268364 253.400227 
L 372.514909 253.400227 
L 375.761455 253.400227 
L 379.008 253.400227 
L 382.254545 253.400227 
L 385.501091 253.400227 
L 388.747636 253.400227 
L 391.994182 253.400227 
L 395.240727 253.400227 
L 398.487273 253.400227 
" clip-path="url(#pc35d4ec2e2)" style="fill: none; stroke: #ff7f0e; stroke-width: 1.5; stroke-linecap: square"/>
   </g>
   <g id="line2d_17">
    <path d="M 73.832727 53.568 
L 77.079273 85.596405 
L 80.325818 98.105464 
L 83.572364 100.424852 
L 86.818909 100.7897 
L 90.065455 111.787248 
L 93.312 112.204217 
L 96.558545 118.276323 
L 99.805091 127.449633 
L 103.051636 129.925384 
L 106.298182 135.606582 
L 109.544727 135.606582 
L 112.791273 141.861112 
L 116.037818 141.861112 
L 119.284364 144.545348 
L 122.530909 154.552595 
L 125.777455 154.552595 
L 129.024 161.458639 
L 132.270545 161.458639 
L 135.517091 161.458639 
L 138.763636 165.107115 
L 142.010182 178.241627 
L 145.256727 178.241627 
L 148.503273 184.391915 
L 151.749818 189.994931 
L 154.996364 208.576097 
L 158.242909 209.462155 
L 161.489455 213.162752 
L 164.736 213.449418 
L 167.982545 213.57972 
L 171.229091 219.156676 
L 174.475636 222.831212 
L 177.722182 223.847573 
L 180.968727 224.811813 
L 184.215273 226.036659 
L 187.461818 226.036659 
L 190.708364 226.036659 
L 193.954909 226.036659 
L 197.201455 226.401506 
L 200.448 226.401506 
L 203.694545 226.401506 
L 206.941091 237.16451 
L 210.187636 239.614201 
L 213.434182 239.614201 
L 216.680727 240.08329 
L 219.927273 240.08329 
L 223.173818 240.08329 
L 226.420364 240.08329 
L 229.666909 240.08329 
L 232.913455 242.97601 
L 236.16 242.97601 
L 239.406545 242.97601 
L 242.653091 248.057816 
L 245.899636 248.057816 
L 249.146182 250.429325 
L 252.392727 250.429325 
L 255.639273 250.429325 
L 258.885818 250.429325 
L 262.132364 250.429325 
L 265.378909 251.13296 
L 268.625455 252.879016 
L 271.872 252.879016 
L 275.118545 252.879016 
L 278.365091 252.879016 
L 281.611636 252.879016 
L 284.858182 254.260224 
L 288.104727 255.563252 
L 291.351273 255.563252 
L 294.597818 255.563252 
L 297.844364 255.563252 
L 301.090909 255.589312 
L 304.337455 255.589312 
L 307.584 263.042627 
L 310.830545 270.365639 
L 314.077091 272.971693 
L 317.323636 272.971693 
L 320.570182 272.971693 
L 323.816727 272.971693 
L 327.063273 273.206238 
L 330.309818 273.206238 
L 333.556364 274.509265 
L 336.802909 274.509265 
L 340.049455 282.926819 
L 343.296 282.926819 
L 346.542545 282.926819 
L 349.789091 282.926819 
L 353.035636 285.063784 
L 356.282182 285.063784 
L 359.528727 285.063784 
L 362.775273 285.063784 
L 366.021818 285.063784 
L 369.268364 286.8359 
L 372.514909 292.386796 
L 375.761455 293.012249 
L 379.008 293.012249 
L 382.254545 293.012249 
L 385.501091 293.012249 
L 388.747636 293.794065 
L 391.994182 294.628002 
L 395.240727 295.488 
L 398.487273 295.488 
" clip-path="url(#pc35d4ec2e2)" style="fill: none; stroke: #2ca02c; stroke-width: 1.5; stroke-linecap: square"/>
   </g>
   <g id="line2d_18">
    <path d="M 73.832727 119.396926 
L 77.079273 121.064801 
L 80.325818 141.496265 
L 83.572364 155.855623 
L 86.818909 171.205281 
L 90.065455 176.261026 
L 93.312 178.710717 
L 96.558545 191.923411 
L 99.805091 193.747649 
L 103.051636 204.484592 
L 106.298182 204.484592 
L 109.544727 206.230648 
L 112.791273 206.230648 
L 116.037818 206.230648 
L 119.284364 214.126992 
L 122.530909 223.769392 
L 125.777455 223.769392 
L 129.024 230.41483 
L 132.270545 230.41483 
L 135.517091 230.41483 
L 138.763636 230.41483 
L 142.010182 232.942702 
L 145.256727 232.942702 
L 148.503273 235.131788 
L 151.749818 243.679645 
L 154.996364 243.679645 
L 158.242909 243.679645 
L 161.489455 243.679645 
L 164.736 243.679645 
L 167.982545 243.679645 
L 171.229091 244.070553 
L 174.475636 244.070553 
L 177.722182 244.070553 
L 180.968727 244.070553 
L 184.215273 246.494183 
L 187.461818 246.494183 
L 190.708364 246.494183 
L 193.954909 246.494183 
L 197.201455 246.494183 
L 200.448 246.624486 
L 203.694545 247.223878 
L 206.941091 247.223878 
L 210.187636 247.223878 
L 213.434182 249.20448 
L 216.680727 249.20448 
L 219.927273 249.20448 
L 223.173818 249.20448 
L 226.420364 257.804458 
L 229.666909 257.804458 
L 232.913455 257.804458 
L 236.16 257.804458 
L 239.406545 257.804458 
L 242.653091 257.804458 
L 245.899636 257.804458 
L 249.146182 257.804458 
L 252.392727 257.804458 
L 255.639273 257.804458 
L 258.885818 257.804458 
L 262.132364 257.804458 
L 265.378909 259.498393 
L 268.625455 267.264434 
L 271.872 271.121394 
L 275.118545 271.121394 
L 278.365091 271.121394 
L 281.611636 271.121394 
L 284.858182 272.84139 
L 288.104727 272.84139 
L 291.351273 273.466843 
L 294.597818 281.754095 
L 297.844364 281.754095 
L 301.090909 281.754095 
L 304.337455 281.754095 
L 307.584 281.754095 
L 310.830545 289.884984 
L 314.077091 289.884984 
L 317.323636 289.884984 
L 320.570182 289.884984 
L 323.816727 290.041347 
L 327.063273 290.041347 
L 330.309818 290.041347 
L 333.556364 290.041347 
L 336.802909 290.041347 
L 340.049455 291.474677 
L 343.296 291.474677 
L 346.542545 291.474677 
L 349.789091 291.474677 
L 353.035636 291.474677 
L 356.282182 291.474677 
L 359.528727 293.872246 
L 362.775273 293.872246 
L 366.021818 293.872246 
L 369.268364 293.872246 
L 372.514909 293.872246 
L 375.761455 293.872246 
L 379.008 293.872246 
L 382.254545 293.872246 
L 385.501091 293.872246 
L 388.747636 293.872246 
L 391.994182 293.872246 
L 395.240727 293.872246 
L 398.487273 293.872246 
" clip-path="url(#pc35d4ec2e2)" style="fill: none; stroke: #d62728; stroke-width: 1.5; stroke-linecap: square"/>
   </g>
   <g id="patch_3">
    <path d="M 57.6 307.584 
L 57.6 41.472 
" style="fill: none; stroke: #000000; stroke-width: 0.8; stroke-linejoin: miter; stroke-linecap: square"/>
   </g>
   <g id="patch_4">
    <path d="M 414.72 307.584 
L 414.72 41.472 
" style="fill: none; stroke: #000000; stroke-width: 0.8; stroke-linejoin: miter; stroke-linecap: square"/>
   </g>
   <g id="patch_5">
    <path d="M 57.6 307.584 
L 414.72 307.584 
" style="fill: none; stroke: #000000; stroke-width: 0.8; stroke-linejoin: miter; stroke-linecap: square"/>
   </g>
   <g id="patch_6">
    <path d="M 57.6 41.472 
L 414.72 41.472 
" style="fill: none; stroke: #000000; stroke-width: 0.8; stroke-linejoin: miter; stroke-linecap: square"/>
   </g>
   <g id="legend_1">
    <g id="patch_7">
     <path d="M 201.365312 108.1845 
L 407.72 108.1845 
Q 409.72 108.1845 409.72 106.1845 
L 409.72 48.472 
Q 409.72 46.472 407.72 46.472 
L 201.365312 46.472 
Q 199.365312 46.472 199.365312 48.472 
L 199.365312 106.1845 
Q 199.365312 108.1845 201.365312 108.1845 
z
" style="fill: #ffffff; opacity: 0.8; stroke: #cccccc; stroke-linejoin: miter"/>
    </g>
    <g id="line2d_19">
     <path d="M 203.365312 54.570438 
L 213.365312 54.570438 
L 223.365312 54.570438 
" style="fill: none; stroke: #1f77b4; stroke-width: 1.5; stroke-linecap: square"/>
    </g>
    <g id="text_15">
     <!-- Rank Selection [f=0.5] -->
     <g transform="translate(231.365312 58.070438) scale(0.1 -0.1)">
      <defs>
       <path id="DejaVuSans-52" d="M 2841 2188 
Q 3044 2119 3236 1894 
Q 3428 1669 3622 1275 
L 4263 0 
L 3584 0 
L 2988 1197 
Q 2756 1666 2539 1819 
Q 2322 1972 1947 1972 
L 1259 1972 
L 1259 0 
L 628 0 
L 628 4666 
L 2053 4666 
Q 2853 4666 3247 4331 
Q 3641 3997 3641 3322 
Q 3641 2881 3436 2590 
Q 3231 2300 2841 2188 
z
M 1259 4147 
L 1259 2491 
L 2053 2491 
Q 2509 2491 2742 2702 
Q 2975 2913 2975 3322 
Q 2975 3731 2742 3939 
Q 2509 4147 2053 4147 
L 1259 4147 
z
" transform="scale(0.015625)"/>
       <path id="DejaVuSans-61" d="M 2194 1759 
Q 1497 1759 1228 1600 
Q 959 1441 959 1056 
Q 959 750 1161 570 
Q 1363 391 1709 391 
Q 2188 391 2477 730 
Q 2766 1069 2766 1631 
L 2766 1759 
L 2194 1759 
z
M 3341 1997 
L 3341 0 
L 2766 0 
L 2766 531 
Q 2569 213 2275 61 
Q 1981 -91 1556 -91 
Q 1019 -91 701 211 
Q 384 513 384 1019 
Q 384 1609 779 1909 
Q 1175 2209 1959 2209 
L 2766 2209 
L 2766 2266 
Q 2766 2663 2505 2880 
Q 2244 3097 1772 3097 
Q 1472 3097 1187 3025 
Q 903 2953 641 2809 
L 641 3341 
Q 956 3463 1253 3523 
Q 1550 3584 1831 3584 
Q 2591 3584 2966 3190 
Q 3341 2797 3341 1997 
z
" transform="scale(0.015625)"/>
       <path id="DejaVuSans-6e" d="M 3513 2113 
L 3513 0 
L 2938 0 
L 2938 2094 
Q 2938 2591 2744 2837 
Q 2550 3084 2163 3084 
Q 1697 3084 1428 2787 
Q 1159 2491 1159 1978 
L 1159 0 
L 581 0 
L 581 3500 
L 1159 3500 
L 1159 2956 
Q 1366 3272 1645 3428 
Q 1925 3584 2291 3584 
Q 2894 3584 3203 3211 
Q 3513 2838 3513 2113 
z
" transform="scale(0.015625)"/>
       <path id="DejaVuSans-6b" d="M 581 4863 
L 1159 4863 
L 1159 1991 
L 2875 3500 
L 3609 3500 
L 1753 1863 
L 3688 0 
L 2938 0 
L 1159 1709 
L 1159 0 
L 581 0 
L 581 4863 
z
" transform="scale(0.015625)"/>
       <path id="DejaVuSans-20" transform="scale(0.015625)"/>
       <path id="DejaVuSans-53" d="M 3425 4513 
L 3425 3897 
Q 3066 4069 2747 4153 
Q 2428 4238 2131 4238 
Q 1616 4238 1336 4038 
Q 1056 3838 1056 3469 
Q 1056 3159 1242 3001 
Q 1428 2844 1947 2747 
L 2328 2669 
Q 3034 2534 3370 2195 
Q 3706 1856 3706 1288 
Q 3706 609 3251 259 
Q 2797 -91 1919 -91 
Q 1588 -91 1214 -16 
Q 841 59 441 206 
L 441 856 
Q 825 641 1194 531 
Q 1563 422 1919 422 
Q 2459 422 2753 634 
Q 3047 847 3047 1241 
Q 3047 1584 2836 1778 
Q 2625 1972 2144 2069 
L 1759 2144 
Q 1053 2284 737 2584 
Q 422 2884 422 3419 
Q 422 4038 858 4394 
Q 1294 4750 2059 4750 
Q 2388 4750 2728 4690 
Q 3069 4631 3425 4513 
z
" transform="scale(0.015625)"/>
       <path id="DejaVuSans-65" d="M 3597 1894 
L 3597 1613 
L 953 1613 
Q 991 1019 1311 708 
Q 1631 397 2203 397 
Q 2534 397 2845 478 
Q 3156 559 3463 722 
L 3463 178 
Q 3153 47 2828 -22 
Q 2503 -91 2169 -91 
Q 1331 -91 842 396 
Q 353 884 353 1716 
Q 353 2575 817 3079 
Q 1281 3584 2069 3584 
Q 2775 3584 3186 3129 
Q 3597 2675 3597 1894 
z
M 3022 2063 
Q 3016 2534 2758 2815 
Q 2500 3097 2075 3097 
Q 1594 3097 1305 2825 
Q 1016 2553 972 2059 
L 3022 2063 
z
" transform="scale(0.015625)"/>
       <path id="DejaVuSans-6c" d="M 603 4863 
L 1178 4863 
L 1178 0 
L 603 0 
L 603 4863 
z
" transform="scale(0.015625)"/>
       <path id="DejaVuSans-63" d="M 3122 3366 
L 3122 2828 
Q 2878 2963 2633 3030 
Q 2388 3097 2138 3097 
Q 1578 3097 1268 2742 
Q 959 2388 959 1747 
Q 959 1106 1268 751 
Q 1578 397 2138 397 
Q 2388 397 2633 464 
Q 2878 531 3122 666 
L 3122 134 
Q 2881 22 2623 -34 
Q 2366 -91 2075 -91 
Q 1284 -91 818 406 
Q 353 903 353 1747 
Q 353 2603 823 3093 
Q 1294 3584 2113 3584 
Q 2378 3584 2631 3529 
Q 2884 3475 3122 3366 
z
" transform="scale(0.015625)"/>
       <path id="DejaVuSans-74" d="M 1172 4494 
L 1172 3500 
L 2356 3500 
L 2356 3053 
L 1172 3053 
L 1172 1153 
Q 1172 725 1289 603 
Q 1406 481 1766 481 
L 2356 481 
L 2356 0 
L 1766 0 
Q 1100 0 847 248 
Q 594 497 594 1153 
L 594 3053 
L 172 3053 
L 172 3500 
L 594 3500 
L 594 4494 
L 1172 4494 
z
" transform="scale(0.015625)"/>
       <path id="DejaVuSans-69" d="M 603 3500 
L 1178 3500 
L 1178 0 
L 603 0 
L 603 3500 
z
M 603 4863 
L 1178 4863 
L 1178 4134 
L 603 4134 
L 603 4863 
z
" transform="scale(0.015625)"/>
       <path id="DejaVuSans-6f" d="M 1959 3097 
Q 1497 3097 1228 2736 
Q 959 2375 959 1747 
Q 959 1119 1226 758 
Q 1494 397 1959 397 
Q 2419 397 2687 759 
Q 2956 1122 2956 1747 
Q 2956 2369 2687 2733 
Q 2419 3097 1959 3097 
z
M 1959 3584 
Q 2709 3584 3137 3096 
Q 3566 2609 3566 1747 
Q 3566 888 3137 398 
Q 2709 -91 1959 -91 
Q 1206 -91 779 398 
Q 353 888 353 1747 
Q 353 2609 779 3096 
Q 1206 3584 1959 3584 
z
" transform="scale(0.015625)"/>
       <path id="DejaVuSans-5b" d="M 550 4863 
L 1875 4863 
L 1875 4416 
L 1125 4416 
L 1125 -397 
L 1875 -397 
L 1875 -844 
L 550 -844 
L 550 4863 
z
" transform="scale(0.015625)"/>
       <path id="DejaVuSans-66" d="M 2375 4863 
L 2375 4384 
L 1825 4384 
Q 1516 4384 1395 4259 
Q 1275 4134 1275 3809 
L 1275 3500 
L 2222 3500 
L 2222 3053 
L 1275 3053 
L 1275 0 
L 697 0 
L 697 3053 
L 147 3053 
L 147 3500 
L 697 3500 
L 697 3744 
Q 697 4328 969 4595 
Q 1241 4863 1831 4863 
L 2375 4863 
z
" transform="scale(0.015625)"/>
       <path id="DejaVuSans-3d" d="M 678 2906 
L 4684 2906 
L 4684 2381 
L 678 2381 
L 678 2906 
z
M 678 1631 
L 4684 1631 
L 4684 1100 
L 678 1100 
L 678 1631 
z
" transform="scale(0.015625)"/>
       <path id="DejaVuSans-2e" d="M 684 794 
L 1344 794 
L 1344 0 
L 684 0 
L 684 794 
z
" transform="scale(0.015625)"/>
       <path id="DejaVuSans-5d" d="M 1947 4863 
L 1947 -844 
L 622 -844 
L 622 -397 
L 1369 -397 
L 1369 4416 
L 622 4416 
L 622 4863 
L 1947 4863 
z
" transform="scale(0.015625)"/>
      </defs>
      <use xlink:href="#DejaVuSans-52"/>
      <use xlink:href="#DejaVuSans-61" x="67.232422"/>
      <use xlink:href="#DejaVuSans-6e" x="128.511719"/>
      <use xlink:href="#DejaVuSans-6b" x="191.890625"/>
      <use xlink:href="#DejaVuSans-20" x="249.800781"/>
      <use xlink:href="#DejaVuSans-53" x="281.587891"/>
      <use xlink:href="#DejaVuSans-65" x="345.064453"/>
      <use xlink:href="#DejaVuSans-6c" x="406.587891"/>
      <use xlink:href="#DejaVuSans-65" x="434.371094"/>
      <use xlink:href="#DejaVuSans-63" x="495.894531"/>
      <use xlink:href="#DejaVuSans-74" x="550.875"/>
      <use xlink:href="#DejaVuSans-69" x="590.083984"/>
      <use xlink:href="#DejaVuSans-6f" x="617.867188"/>
      <use xlink:href="#DejaVuSans-6e" x="679.048828"/>
      <use xlink:href="#DejaVuSans-20" x="742.427734"/>
      <use xlink:href="#DejaVuSans-5b" x="774.214844"/>
      <use xlink:href="#DejaVuSans-66" x="813.228516"/>
      <use xlink:href="#DejaVuSans-3d" x="848.433594"/>
      <use xlink:href="#DejaVuSans-30" x="932.222656"/>
      <use xlink:href="#DejaVuSans-2e" x="995.845703"/>
      <use xlink:href="#DejaVuSans-35" x="1027.632812"/>
      <use xlink:href="#DejaVuSans-5d" x="1091.255859"/>
     </g>
    </g>
    <g id="line2d_20">
     <path d="M 203.365312 69.248563 
L 213.365312 69.248563 
L 223.365312 69.248563 
" style="fill: none; stroke: #ff7f0e; stroke-width: 1.5; stroke-linecap: square"/>
    </g>
    <g id="text_16">
     <!-- Roulette Selection [f=0.5] -->
     <g transform="translate(231.365312 72.748563) scale(0.1 -0.1)">
      <defs>
       <path id="DejaVuSans-75" d="M 544 1381 
L 544 3500 
L 1119 3500 
L 1119 1403 
Q 1119 906 1312 657 
Q 1506 409 1894 409 
Q 2359 409 2629 706 
Q 2900 1003 2900 1516 
L 2900 3500 
L 3475 3500 
L 3475 0 
L 2900 0 
L 2900 538 
Q 2691 219 2414 64 
Q 2138 -91 1772 -91 
Q 1169 -91 856 284 
Q 544 659 544 1381 
z
M 1991 3584 
L 1991 3584 
z
" transform="scale(0.015625)"/>
      </defs>
      <use xlink:href="#DejaVuSans-52"/>
      <use xlink:href="#DejaVuSans-6f" x="64.982422"/>
      <use xlink:href="#DejaVuSans-75" x="126.164062"/>
      <use xlink:href="#DejaVuSans-6c" x="189.542969"/>
      <use xlink:href="#DejaVuSans-65" x="217.326172"/>
      <use xlink:href="#DejaVuSans-74" x="278.849609"/>
      <use xlink:href="#DejaVuSans-74" x="318.058594"/>
      <use xlink:href="#DejaVuSans-65" x="357.267578"/>
      <use xlink:href="#DejaVuSans-20" x="418.791016"/>
      <use xlink:href="#DejaVuSans-53" x="450.578125"/>
      <use xlink:href="#DejaVuSans-65" x="514.054688"/>
      <use xlink:href="#DejaVuSans-6c" x="575.578125"/>
      <use xlink:href="#DejaVuSans-65" x="603.361328"/>
      <use xlink:href="#DejaVuSans-63" x="664.884766"/>
      <use xlink:href="#DejaVuSans-74" x="719.865234"/>
      <use xlink:href="#DejaVuSans-69" x="759.074219"/>
      <use xlink:href="#DejaVuSans-6f" x="786.857422"/>
      <use xlink:href="#DejaVuSans-6e" x="848.039062"/>
      <use xlink:href="#DejaVuSans-20" x="911.417969"/>
      <use xlink:href="#DejaVuSans-5b" x="943.205078"/>
      <use xlink:href="#DejaVuSans-66" x="982.21875"/>
      <use xlink:href="#DejaVuSans-3d" x="1017.423828"/>
      <use xlink:href="#DejaVuSans-30" x="1101.212891"/>
      <use xlink:href="#DejaVuSans-2e" x="1164.835938"/>
      <use xlink:href="#DejaVuSans-35" x="1196.623047"/>
      <use xlink:href="#DejaVuSans-5d" x="1260.246094"/>
     </g>
    </g>
    <g id="line2d_21">
     <path d="M 203.365312 83.926688 
L 213.365312 83.926688 
L 223.365312 83.926688 
" style="fill: none; stroke: #2ca02c; stroke-width: 1.5; stroke-linecap: square"/>
    </g>
    <g id="text_17">
     <!-- Tournament Selection [f=0.5, k=2] -->
     <g transform="translate(231.365312 87.426688) scale(0.1 -0.1)">
      <defs>
       <path id="DejaVuSans-54" d="M -19 4666 
L 3928 4666 
L 3928 4134 
L 2272 4134 
L 2272 0 
L 1638 0 
L 1638 4134 
L -19 4134 
L -19 4666 
z
" transform="scale(0.015625)"/>
       <path id="DejaVuSans-72" d="M 2631 2963 
Q 2534 3019 2420 3045 
Q 2306 3072 2169 3072 
Q 1681 3072 1420 2755 
Q 1159 2438 1159 1844 
L 1159 0 
L 581 0 
L 581 3500 
L 1159 3500 
L 1159 2956 
Q 1341 3275 1631 3429 
Q 1922 3584 2338 3584 
Q 2397 3584 2469 3576 
Q 2541 3569 2628 3553 
L 2631 2963 
z
" transform="scale(0.015625)"/>
       <path id="DejaVuSans-6d" d="M 3328 2828 
Q 3544 3216 3844 3400 
Q 4144 3584 4550 3584 
Q 5097 3584 5394 3201 
Q 5691 2819 5691 2113 
L 5691 0 
L 5113 0 
L 5113 2094 
Q 5113 2597 4934 2840 
Q 4756 3084 4391 3084 
Q 3944 3084 3684 2787 
Q 3425 2491 3425 1978 
L 3425 0 
L 2847 0 
L 2847 2094 
Q 2847 2600 2669 2842 
Q 2491 3084 2119 3084 
Q 1678 3084 1418 2786 
Q 1159 2488 1159 1978 
L 1159 0 
L 581 0 
L 581 3500 
L 1159 3500 
L 1159 2956 
Q 1356 3278 1631 3431 
Q 1906 3584 2284 3584 
Q 2666 3584 2933 3390 
Q 3200 3197 3328 2828 
z
" transform="scale(0.015625)"/>
       <path id="DejaVuSans-2c" d="M 750 794 
L 1409 794 
L 1409 256 
L 897 -744 
L 494 -744 
L 750 256 
L 750 794 
z
" transform="scale(0.015625)"/>
      </defs>
      <use xlink:href="#DejaVuSans-54"/>
      <use xlink:href="#DejaVuSans-6f" x="44.083984"/>
      <use xlink:href="#DejaVuSans-75" x="105.265625"/>
      <use xlink:href="#DejaVuSans-72" x="168.644531"/>
      <use xlink:href="#DejaVuSans-6e" x="208.007812"/>
      <use xlink:href="#DejaVuSans-61" x="271.386719"/>
      <use xlink:href="#DejaVuSans-6d" x="332.666016"/>
      <use xlink:href="#DejaVuSans-65" x="430.078125"/>
      <use xlink:href="#DejaVuSans-6e" x="491.601562"/>
      <use xlink:href="#DejaVuSans-74" x="554.980469"/>
      <use xlink:href="#DejaVuSans-20" x="594.189453"/>
      <use xlink:href="#DejaVuSans-53" x="625.976562"/>
      <use xlink:href="#DejaVuSans-65" x="689.453125"/>
      <use xlink:href="#DejaVuSans-6c" x="750.976562"/>
      <use xlink:href="#DejaVuSans-65" x="778.759766"/>
      <use xlink:href="#DejaVuSans-63" x="840.283203"/>
      <use xlink:href="#DejaVuSans-74" x="895.263672"/>
      <use xlink:href="#DejaVuSans-69" x="934.472656"/>
      <use xlink:href="#DejaVuSans-6f" x="962.255859"/>
      <use xlink:href="#DejaVuSans-6e" x="1023.4375"/>
      <use xlink:href="#DejaVuSans-20" x="1086.816406"/>
      <use xlink:href="#DejaVuSans-5b" x="1118.603516"/>
      <use xlink:href="#DejaVuSans-66" x="1157.617188"/>
      <use xlink:href="#DejaVuSans-3d" x="1192.822266"/>
      <use xlink:href="#DejaVuSans-30" x="1276.611328"/>
      <use xlink:href="#DejaVuSans-2e" x="1340.234375"/>
      <use xlink:href="#DejaVuSans-35" x="1372.021484"/>
      <use xlink:href="#DejaVuSans-2c" x="1435.644531"/>
      <use xlink:href="#DejaVuSans-20" x="1467.431641"/>
      <use xlink:href="#DejaVuSans-6b" x="1499.21875"/>
      <use xlink:href="#DejaVuSans-3d" x="1557.128906"/>
      <use xlink:href="#DejaVuSans-32" x="1640.917969"/>
      <use xlink:href="#DejaVuSans-5d" x="1704.541016"/>
     </g>
    </g>
    <g id="line2d_22">
     <path d="M 203.365312 98.604813 
L 213.365312 98.604813 
L 223.365312 98.604813 
" style="fill: none; stroke: #d62728; stroke-width: 1.5; stroke-linecap: square"/>
    </g>
    <g id="text_18">
     <!-- Tournament Selection [f=0.5, k=4] -->
     <g transform="translate(231.365312 102.104813) scale(0.1 -0.1)">
      <use xlink:href="#DejaVuSans-54"/>
      <use xlink:href="#DejaVuSans-6f" x="44.083984"/>
      <use xlink:href="#DejaVuSans-75" x="105.265625"/>
      <use xlink:href="#DejaVuSans-72" x="168.644531"/>
      <use xlink:href="#DejaVuSans-6e" x="208.007812"/>
      <use xlink:href="#DejaVuSans-61" x="271.386719"/>
      <use xlink:href="#DejaVuSans-6d" x="332.666016"/>
      <use xlink:href="#DejaVuSans-65" x="430.078125"/>
      <use xlink:href="#DejaVuSans-6e" x="491.601562"/>
      <use xlink:href="#DejaVuSans-74" x="554.980469"/>
      <use xlink:href="#DejaVuSans-20" x="594.189453"/>
      <use xlink:href="#DejaVuSans-53" x="625.976562"/>
      <use xlink:href="#DejaVuSans-65" x="689.453125"/>
      <use xlink:href="#DejaVuSans-6c" x="750.976562"/>
      <use xlink:href="#DejaVuSans-65" x="778.759766"/>
      <use xlink:href="#DejaVuSans-63" x="840.283203"/>
      <use xlink:href="#DejaVuSans-74" x="895.263672"/>
      <use xlink:href="#DejaVuSans-69" x="934.472656"/>
      <use xlink:href="#DejaVuSans-6f" x="962.255859"/>
      <use xlink:href="#DejaVuSans-6e" x="1023.4375"/>
      <use xlink:href="#DejaVuSans-20" x="1086.816406"/>
      <use xlink:href="#DejaVuSans-5b" x="1118.603516"/>
      <use xlink:href="#DejaVuSans-66" x="1157.617188"/>
      <use xlink:href="#DejaVuSans-3d" x="1192.822266"/>
      <use xlink:href="#DejaVuSans-30" x="1276.611328"/>
      <use xlink:href="#DejaVuSans-2e" x="1340.234375"/>
      <use xlink:href="#DejaVuSans-35" x="1372.021484"/>
      <use xlink:href="#DejaVuSans-2c" x="1435.644531"/>
      <use xlink:href="#DejaVuSans-20" x="1467.431641"/>
      <use xlink:href="#DejaVuSans-6b" x="1499.21875"/>
      <use xlink:href="#DejaVuSans-3d" x="1557.128906"/>
      <use xlink:href="#DejaVuSans-34" x="1640.917969"/>
      <use xlink:href="#DejaVuSans-5d" x="1704.541016"/>
     </g>
    </g>
   </g>
  </g>
 </g>
 <defs>
  <clipPath id="pc35d4ec2e2">
   <rect x="57.6" y="41.472" width="357.12" height="266.112"/>
  </clipPath>
 </defs>
</svg>
